<?xml version="1.0" standalone="no"?>
<!DOCTYPE svg PUBLIC "-//W3C//DTD SVG 1.1//EN" "http://www.w3.org/Graphics/SVG/1.1/DTD/svg11.dtd" >
<svg xmlns="http://www.w3.org/2000/svg">
<metadata></metadata>
<defs>
<font id="aovel_sansregular" horiz-adv-x="985" >
<font-face units-per-em="2048" ascent="1638" descent="-410" />
<missing-glyph horiz-adv-x="569" />
<glyph unicode="&#xfb01;" horiz-adv-x="575" d="M80 0v1258q1 133 82 165q63 26 137 24h-1q201 13 201 -332l-77 22q0 241 -131 232q-83 0 -109 -28q-25 -29 -24 -96v-269h219v-78h-219v-898h-78zM420 0v1053h78v-1053h-78z" />
<glyph unicode="&#xfb02;" horiz-adv-x="582" d="M81 0v1258q1 133 82 165q63 26 137 24q30 -1 74 -5t101 -11l-12 -92q-129 30 -171 30q-83 0 -109 -28q-25 -29 -24 -96v-269h219v-78h-219v-898h-78zM421 0v1447h78v-1447h-78z" />
<glyph horiz-adv-x="2048" />
<glyph horiz-adv-x="2048" />
<glyph horiz-adv-x="0" />
<glyph horiz-adv-x="569" />
<glyph horiz-adv-x="635" d="M52 1481h79q15 -87 63 -128q46 -44 118 -44q80 0 132 40q24 19 39 51.5t20 80.5h79q-13 -130 -89 -189l1 1q-74 -62 -182 -62q-106 0 -174 65q-68 63 -86 185z" />
<glyph horiz-adv-x="617" d="M28 1481h89l194 -231q46 57 94 116t92 115h91l-255 -313h-48z" />
<glyph horiz-adv-x="246" d="M80 0v1053h78v-1053h-78z" />
<glyph horiz-adv-x="246" d="M80 1164v198h78v-198h-78z" />
<glyph horiz-adv-x="765" d="M33 1158l296 323h113l-327 -323h-82zM329 1158l296 323h112l-326 -323h-82z" />
<glyph horiz-adv-x="496" d="M55 1349q0 41 17 78q15 31 42 58q54 54 134 56q81 -2 135 -56q55 -55 57 -136q-2 -82 -57 -136q-54 -57 -135 -57q-80 0 -134 57q-57 55 -59 136zM133 1350q2 -49 36 -81q30 -35 79 -35q48 0 81 36q33 32 33 79q0 51 -32 84q-32 31 -82 31q-48 0 -79 -31q-19 -19 -27 -39 t-9 -44z" />
<glyph horiz-adv-x="458" d="M44 -231q2 43 22 82v-1q8 18 21 36.5t27 34.5q27 30 62.5 60t73.5 58h118q-250 -195 -246 -268q0 -25 21 -44q20 -20 69 -22q27 1 49.5 5t39.5 13h-1q17 8 32 21t29 29l63 -47q-29 -32 -56 -52t-53 -29q-25 -8 -51.5 -13t-52.5 -5q-81 1 -123 45h1q-45 43 -45 97z" />
<glyph unicode=" "  horiz-adv-x="569" />
<glyph unicode="&#x09;" horiz-adv-x="569" />
<glyph unicode="&#xa0;" horiz-adv-x="569" />
<glyph unicode="!" horiz-adv-x="244" d="M79 0v232h78v-232h-78zM79 359v1088h78v-1088h-78z" />
<glyph unicode="&#x22;" horiz-adv-x="462" d="M80 964v483h79v-483h-79zM302 964v483h78v-483h-78z" />
<glyph unicode="#" horiz-adv-x="1048" d="M24 452v78h258q6 42 11 80t10 75t10 75t11 80h-246v78h261q15 113 31 231.5t30 231.5h79l-61 -463h297q15 113 31.5 231.5t30.5 231.5h79l-62 -463h227v-78h-241q-6 -42 -11 -80t-10.5 -75t-10.5 -75t-11 -80h229v-78h-241q-15 -111 -31.5 -227t-30.5 -225h-79l62 452 h-300q-15 -111 -31 -227t-30 -225h-79l61 452h-243zM361 530h297q6 42 11 80t10.5 75t10.5 75t11 80h-298z" />
<glyph unicode="$" horiz-adv-x="1166" d="M38 506h79q0 -246 125 -350q60 -50 136 -76.5t172 -32.5v668q-11 3 -21.5 5.5t-21.5 4.5q-27 7 -55 13.5t-54 13.5q-42 13 -81 28t-75 36v-1q-74 42 -116 110v-1q-46 68 -46 174q2 106 45 182t119 121q139 80 306 80v85h78v-87q101 -2 178.5 -27.5t143.5 -74.5 q68 -54 105 -143.5t43 -219.5h-78q-10 217 -119 300q-108 82 -273 87v-624q51 -11 98 -23t93 -24q45 -15 84.5 -31t71.5 -36q35 -20 63 -48.5t49 -63.5q38 -70 38 -187q-4 -207 -167 -304q-75 -46 -155.5 -69t-174.5 -25v-173h-78v176q-107 6 -200 40.5t-162 91.5 q-71 63 -110 165.5t-40 239.5zM158 1098q0 -79 35 -129q17 -26 40 -47t50 -38q29 -17 62 -30t71 -24q25 -7 50 -13.5t51 -13.5q7 -2 10.5 -2.5t6 -1t6 -1.5l10.5 -3v608q-141 -3 -260 -68l1 1q-30 -17 -53 -39.5t-42 -50.5q-38 -57 -38 -148zM628 44q78 2 148.5 22t133.5 56 q133 74 137 244q0 96 -36 153h1q-41 57 -105 91q-32 17 -68.5 31t-72.5 25q-34 8 -67.5 15t-70.5 15v-652z" />
<glyph unicode="%" horiz-adv-x="1409" d="M52 1043q0 78 22.5 145t61.5 115q43 48 101.5 74t133.5 27q81 -1 141.5 -26.5t102.5 -74.5q82 -102 82 -258q0 -72 -21.5 -135.5t-59.5 -111.5q-44 -51 -105.5 -78.5t-139.5 -28.5q-161 2 -242 110q-77 100 -77 242zM130 1043q0 -114 62 -193q29 -41 74 -60.5t105 -20.5 q124 1 186 81q61 79 61 193q0 130 -59 207q-61 75 -188 76q-127 -2 -182 -77q-59 -79 -59 -206zM168 -67l964 1514h91l-964 -1514h-91zM715 329q0 79 22.5 145t61.5 114q42 49 101 75t134 27q162 -1 244 -102q81 -99 81 -257q0 -72 -21.5 -135.5t-59.5 -111.5 q-43 -51 -105 -79t-140 -29q-79 2 -140 31t-101 80q-77 100 -77 242zM793 329q0 -114 62 -193q60 -80 179 -82q125 2 186 82q61 79 61 193q0 131 -59 208v-1q-32 38 -78.5 56.5t-109.5 19.5q-126 -2 -181 -77q-60 -77 -60 -206z" />
<glyph unicode="&#x26;" horiz-adv-x="1178" d="M49 335q2 88 37 162t98 132q29 29 62 56t62 47q23 15 45.5 29t44.5 28q10 6 11 6.5t10 6.5q-13 17 -25 33t-25 34q-17 22 -35 46t-35 47q-16 23 -29 48t-25 54v-1q-26 48 -26 103q2 147 100 216q93 65 207 65q129 0 218 -71q87 -74 89 -210q0 -77 -29 -131 q-16 -30 -37 -56.5t-46 -50.5q-48 -41 -94.5 -77.5t-92.5 -68.5q44 -56 85.5 -108.5t82.5 -105t82.5 -105.5t86.5 -109q7 17 13 36.5t11 40.5l-1 -1q6 32 8.5 71t1.5 84h78q1 -91 -13 -166t-43 -136l223 -283h-100l-163 207q-28 -48 -65.5 -87.5t-83.5 -72.5 q-106 -79 -266 -81q-161 2 -286 99q-66 48 -100.5 116t-35.5 154zM127 335q2 -142 106 -214q103 -77 238 -77q136 0 228 70q41 31 76 72.5t60 89.5l-370 464q-60 -33 -114 -73t-108 -86h1q-26 -24 -47.5 -51t-36.5 -57q-33 -59 -33 -138zM297 1170q-2 -98 188 -328 q1 1 1.5 1t1.5 1q40 26 78 55q21 17 43.5 35t47.5 41v-1q42 42 74 92l-1 -1q14 23 19.5 48t5.5 53q-1 45 -17.5 83.5t-48.5 67.5q-67 52 -161 52q-96 0 -164 -53q-65 -52 -67 -146z" />
<glyph unicode="'" horiz-adv-x="245" d="M80 964v483h77v-483h-77z" />
<glyph unicode="(" horiz-adv-x="382" d="M28 575q1 476 236 906h86q-242 -439 -244 -906q0 -475 245 -924h-85q-238 434 -238 924z" />
<glyph unicode=")" horiz-adv-x="380" d="M30 1481h85q237 -437 237 -925q-2 -478 -235 -905h-85q121 221 181 446.5t61 458.5q-1 241 -61 470t-183 455z" />
<glyph unicode="*" horiz-adv-x="662" d="M24 1187l23 74l242 -84v270h78v-270q62 20 129 43t127 42l15 -76l-247 -81q39 -51 80 -105.5t79 -104.5l-63 -46l-159 207q-40 -51 -82 -101.5t-81 -98.5l-61 52l168 197q-60 20 -125 41.5t-123 40.5z" />
<glyph unicode="+" horiz-adv-x="1041" d="M4 480v78h478v479h78v-479h477v-78h-477v-480h-78v480h-478z" />
<glyph unicode="," horiz-adv-x="208" d="M37 -169q27 29 38 69q9 37 9 119v213h78v-213q1 -180 -125 -272v84z" />
<glyph unicode="-" horiz-adv-x="549" d="M82 509v78h383v-78h-383z" />
<glyph unicode="." horiz-adv-x="246" d="M80 0v232h78v-232h-78z" />
<glyph unicode="/" horiz-adv-x="750" d="M4 -34l661 1515h81l-661 -1515h-81z" />
<glyph unicode="0" horiz-adv-x="1171" d="M59 690q-1 132 28.5 255t83.5 227q60 111 164 170t250 62q148 -3 252 -62t164 -170q54 -104 83 -227t28 -255q1 -137 -26.5 -256t-84.5 -225v1q-118 -227 -416 -234q-293 7 -414 234v-1q-114 209 -112 481zM137 690q0 -54 5.5 -109t18.5 -113q18 -111 70 -206 q52 -97 138 -148q87 -60 216 -60q132 0 218 60q44 26 77.5 63t59.5 85q52 95 73 207v-1q21 114 21 222q0 111 -21 228v-1q-21 114 -73 203q-98 200 -355 206q-63 -1 -117.5 -15.5t-98.5 -40.5q-89 -60 -139 -150q-51 -88 -69 -203q-13 -57 -18.5 -113.5t-5.5 -113.5z" />
<glyph unicode="1" horiz-adv-x="520" d="M0 1048v78q64 23 114.5 48t89.5 52q39 29 80 67t83 88h72v-1381h-78v1260q-58 -63 -132 -111q-49 -30 -107 -56.5t-122 -44.5z" />
<glyph unicode="2" horiz-adv-x="1026" d="M59 0q1 109 40 184q37 70 100 133q32 32 67 61t73 57q38 27 75.5 53.5t75.5 51.5q81 54 150 108.5t129 114.5q115 115 119 261v-1q-2 148 -98 226q-100 77 -256 77q-195 -1 -285 -112v1q-89 -112 -89 -313h-78q4 496 452 502q184 0 306 -93q125 -99 126 -289 q-5 -172 -130 -300h1q-60 -64 -131 -122.5t-152 -111.5q-78 -52 -149 -105t-131 -102q-54 -46 -87 -97t-46 -106h860v-78h-942z" />
<glyph unicode="3" horiz-adv-x="1092" d="M50 441v11t0.5 14.5t0.5 14.5v11h80q-1 -9 -2 -27.5t-1 -27.5q0 -180 107 -273q119 -110 323 -110q162 0 278 90q112 85 117 247q-2 159 -101 232q-102 75 -266 79h-115v78h116q66 -1 124.5 16t111.5 49q98 62 104 209q-8 152 -111 212q-54 29 -116 44.5t-134 15.5 q-388 0 -400 -401h-77q0 248 131 363h-1q125 116 347 116q174 0 301 -76q134 -83 138 -273q-1 -150 -87 -232q-28 -29 -61.5 -49t-71.5 -32q77 -25 142 -81q51 -45 77 -112t27 -159q-2 -198 -143 -305q-136 -108 -330 -109q-239 2 -377 132v-1q-131 122 -131 334z" />
<glyph unicode="4" horiz-adv-x="1034" d="M6 349v73l680 959h78v-954h243v-78h-243v-349h-78v349h-680zM102 427h584v823q-75 -105 -147.5 -207t-144.5 -203.5t-144.5 -204t-147.5 -208.5zM686 1250v55l17 -18l14 7l-16 -22t-15 -22z" />
<glyph unicode="5" horiz-adv-x="1056" d="M53 468h78q-2 -206 106 -308v-1q54 -51 131 -77t170 -28q186 10 291.5 114.5t112.5 296.5q-2 88 -28 162.5t-80 129.5q-108 112 -296 113q-242 -2 -364 -205h-84l151 716h724v-78h-659l-104 -486q123 131 336 131q109 -1 196.5 -34t153.5 -100q130 -133 132 -349 q-2 -223 -132 -352q-130 -135 -350 -137q-219 1 -353 128v-1q-133 123 -132 365z" />
<glyph unicode="6" horiz-adv-x="1096" d="M59 652q-1 136 26.5 262.5t81.5 239.5q59 116 164 181t251 69q184 -1 298 -103q113 -101 140 -275h-78q-11 53 -26 92.5t-33 68.5l1 -1q-38 54 -92 85h1q-53 28 -105.5 42t-106.5 13q-137 -2 -229 -70q-45 -35 -80 -81t-58 -100q-48 -111 -63 -241q-5 -38 -8 -73t-5 -70 q45 86 126 151q62 48 136 73.5t157 26.5q191 -2 334 -131h-1q147 -131 151 -351q-5 -212 -145 -345q-136 -138 -339 -139q-143 2 -246 70q-109 68 -160 151q-29 45 -47.5 100t-26.5 112q-8 54 -13.5 118t-4.5 125zM153 460q1 -173 118 -288q114 -117 286 -118q175 1 289 118 q59 59 87.5 130.5t29.5 157.5q-1 171 -117 288q-59 59 -130.5 87t-158.5 29q-85 -1 -156 -29t-130 -87q-117 -115 -118 -288z" />
<glyph unicode="7" horiz-adv-x="916" d="M11 1303v78h895v-81q-141 -137 -251 -280.5t-190 -298.5q-164 -308 -165 -721h-79q24 780 574 1303h-784z" />
<glyph unicode="8" horiz-adv-x="1125" d="M56 394q6 294 279 365q-74 27 -125 81v-1q-86 82 -87 206q1 94 35.5 163.5t97.5 113.5q121 82 307 82t311 -83q127 -88 128 -276q-1 -122 -84 -205q-28 -28 -59.5 -47.5t-67.5 -33.5q272 -71 278 -365q-4 -214 -152 -317q-146 -101 -354 -101q-206 0 -352 101v-1 q-152 104 -155 318zM134 394q1 -89 32 -153t96 -105q126 -83 301 -82q177 -1 303 82q121 80 125 258q-2 86 -37 151t-89 101q-61 33 -137.5 51t-164.5 17q-87 1 -163 -17t-137 -51q-60 -36 -93.5 -99t-35.5 -153zM201 1045q0 -66 32 -110q15 -22 36.5 -42.5t46.5 -36.5 q54 -31 117 -47.5t130 -16.5q139 0 249 64q108 61 113 190q0 81 -28 134v-1q-32 58 -80 87l1 -1q-113 61 -255 61q-140 0 -253 -61l1 1q-49 -31 -79 -87q-31 -56 -31 -134z" />
<glyph unicode="9" horiz-adv-x="1099" d="M56 921q2 214 146 348v-1q141 135 337 136q148 -2 251 -68q101 -64 156 -152q59 -92 79 -209q15 -113 15 -248q2 -268 -108 -499q-60 -107 -162 -179q-105 -72 -257 -73q-180 1 -296 104q-114 97 -141 275h77q48 -183 155 -242q26 -16 52.5 -27t53.5 -19q26 -6 51.5 -9.5 t50.5 -3.5q143 2 232 73q87 69 137 182q24 55 40 116.5t25 125.5q9 73 12 144q-43 -90 -125 -155l1 1q-126 -102 -299 -103q-95 1 -177.5 35t-153.5 100q-148 131 -152 348zM134 921q1 -88 30.5 -158.5t88.5 -127.5q57 -59 127.5 -88.5t158.5 -30.5q173 2 288 119 q59 59 87.5 130t29.5 156q-1 88 -30.5 159t-86.5 129q-116 116 -288 117q-85 -1 -156 -29.5t-130 -87.5q-118 -115 -119 -288z" />
<glyph unicode=":" horiz-adv-x="179" d="M80 0v232h78v-232h-78zM80 821v232h78v-232h-78z" />
<glyph unicode=";" horiz-adv-x="205" d="M25 -169q27 29 38 69q9 37 9 119v213h78v-213q1 -180 -125 -272v84zM72 821v232h78v-232h-78z" />
<glyph unicode="&#x3c;" horiz-adv-x="1112" d="M2 483v72l1041 510v-85l-942 -462q234 -114 471.5 -230t470.5 -230v-85z" />
<glyph unicode="=" horiz-adv-x="1126" d="M80 288v78h1033v-78h-1033zM80 671v78h1033v-78h-1033z" />
<glyph unicode="&#x3e;" horiz-adv-x="1112" d="M69 -27v85l942 460q-235 115 -471 231t-471 231v85l1041 -510v-72z" />
<glyph unicode="?" horiz-adv-x="905" d="M23 973q-4 232 113 371q116 135 334 137q176 0 290 -89q117 -92 118 -258q0 -75 -21 -135q-11 -29 -23.5 -54.5t-29.5 -48.5q-15 -20 -31.5 -39t-33.5 -35q-12 -13 -26.5 -26t-24.5 -21q-3 -2 -5.5 -5t-4.5 -5l1 1q-103 -95 -146 -174q-44 -80 -44 -233h-78 q-2 154 46 251v-1q46 97 154 201l6 6q6 6 16.5 15t23.5 20q14 11 30 27t32 36q36 39 58 98v-1q21 51 24 124q-2 63 -25 113t-65 85q-94 70 -241 70q-188 -2 -279 -112q-97 -110 -89 -318h-79zM411 0v232h78v-232h-78z" />
<glyph unicode="@" horiz-adv-x="1506" d="M55 716q2 163 56.5 293t160.5 230v-1q211 201 517 205q278 -1 466 -165q92 -81 140.5 -192.5t52.5 -255.5q-8 -241 -146 -399h1q-136 -169 -302 -171q-66 0 -105 42h1q-26 24 -30 55q-48 -48 -103 -70q-37 -14 -75 -21t-76 -6q-61 0 -112 23.5t-92 68.5 q-41 42 -62.5 96.5t-21.5 117.5q2 204 134 390q67 89 153 143q93 54 201 56q100 0 179 -46q39 -24 67 -55q7 -9 13 -18t11 -19q2 5 4 11l4 12q6 16 14.5 38.5t14.5 39.5h83q-14 -36 -29 -76t-31 -80.5t-31 -79.5t-29 -75q-54 -141 -108 -285q-36 -83 -31 -139q3 -45 61 -45 q60 1 119.5 35.5t118.5 106.5q58 66 89.5 156t37.5 195q-2 118 -44 216.5t-117 170.5q-82 72 -187.5 109t-232.5 38q-286 -4 -467 -190q-188 -180 -189 -459q4 -327 197 -492q188 -170 459 -170q43 0 87 7t82 18q41 14 79.5 30t72.5 36q36 20 68.5 43.5t63.5 52.5 q32 28 58.5 59.5t50.5 65.5h91q-247 -379 -653 -390q-282 0 -500 179l1 -1q-229 181 -235 562zM403 566q0 -100 62 -161q58 -67 156 -67q38 -1 77.5 11.5t78.5 32.5q17 11 35.5 29t35.5 40q17 23 32 50.5t26 61.5l139 358q-14 45 -38 75t-56 47q-68 34 -147 34 q-87 0 -157 -46q-77 -51 -129 -126h1q-115 -169 -116 -339z" />
<glyph unicode="A" horiz-adv-x="1307" d="M27 0l594 1462h80l577 -1462h-87l-187 468h-698q-46 -114 -95 -234.5t-94 -233.5h-90zM337 547h635q-79 203 -156 403t-155 404q-83 -207 -162 -403.5t-162 -403.5zM644 1396l17 -12l16 12q-4 -11 -8 -21t-8 -21q-5 11 -9 21t-8 21z" />
<glyph unicode="B" horiz-adv-x="1241" d="M83 1325v17q0 32 3 53q4 27 29 42.5t77.5 21t148.5 5.5q29 0 61.5 -0.5t70.5 -0.5q51 -1 111.5 -1h131.5q182 0 297 -90q123 -94 124 -284q-2 -142 -89 -235q-56 -60 -133 -89q88 -22 157 -87h-1q109 -100 109 -271q0 -199 -137 -303q-135 -103 -351 -103h-608v1290 q0 9 -0.5 18t-0.5 17zM162 1323q0 -8 0.5 -17t0.5 -18v-488h553q138 0 242 74q99 72 100 214q-2 152 -95 223q-95 72 -247 72q-103 0 -181.5 1t-138.5 3q-33 1 -65 1.5t-55 0.5q-44 0 -67.5 -2.5t-34.5 -10.5q-10 -8 -12 -20q-1 -8 0 -18v-15zM163 79h547q173 0 282 82 q108 79 110 243q-4 175 -117 247h1q-115 70 -270 70h-553v-642z" />
<glyph unicode="C" horiz-adv-x="1417" d="M57 719v7q-1 136 39 264q40 130 119 250q81 123 214.5 187.5t316.5 68.5q293 -6 439 -170v1q147 -161 149 -330h-78q-13 173 -149 294q-134 122 -361 126q-169 -1 -284 -67q-57 -32 -104.5 -76t-82.5 -95q-69 -109 -105 -227q-36 -114 -35 -227v-6q0 -137 39 -254 t117 -217q149 -198 429 -203q125 1 222.5 38.5t169.5 115.5q143 149 177 398h80q-40 -293 -205 -458q-165 -171 -444 -173q-146 2 -266 56.5t-211 157.5q-88 103 -136.5 240t-49.5 299z" />
<glyph unicode="D" horiz-adv-x="1285" d="M87 0v1349q0 37 1.5 60.5t16.5 36.5t49 18t100 5q30 0 67.5 -1t85.5 -2q42 -1 91 -2t106 -2q112 -1 221 -31q112 -37 203 -119h-1q95 -83 148 -223q26 -71 39.5 -160t14.5 -198q-4 -386 -210 -561q-203 -170 -477 -170h-455zM165 79h387q251 0 423 160q172 161 175 492 q0 49 -2.5 95t-8.5 88q-12 77 -35 141q-48 127 -127 198q-78 72 -178 104h1q-48 13 -99 19.5t-107 6.5q-72 0 -128.5 0.5t-101.5 1.5q-29 1 -52.5 1h-43.5q-40 0 -61 -1.5t-30.5 -7t-10.5 -15t-1 -24.5v-1259z" />
<glyph unicode="E" horiz-adv-x="1071" d="M81 0v1462h983v-79h-905v-583h851v-79h-851v-642h912v-79h-990z" />
<glyph unicode="F" horiz-adv-x="997" d="M81 0v1462h916v-79h-837v-583h757v-79h-757v-721h-79z" />
<glyph unicode="G" horiz-adv-x="1433" d="M57 731q1 166 47 300.5t137 242.5q181 218 504 222q518 -11 614 -518h-81q-22 105 -68.5 185t-115 134.5t-156.5 84.5t-193 35q-143 -4 -257 -53.5t-192 -146.5q-161 -196 -161 -486q0 -287 158 -484h-1q42 -48 90 -83q24 -19 49.5 -34t53.5 -29q112 -56 265 -56 q115 1 212 38t177 113v-1q153 145 158 376q-2 24 -12.5 40t-37.5 15h-502v79h505h3q62 0 94 -45q33 -46 33 -121q0 -39 -8.5 -84t-27.5 -93q-148 -390 -599 -396q-340 5 -514 227q-174 216 -174 538z" />
<glyph unicode="H" horiz-adv-x="1278" d="M81 0v1462h79v-662h957v662h79v-1462h-79v721h-957v-721h-79z" />
<glyph unicode="I" horiz-adv-x="247" d="M80 0v1462h79v-1462h-79z" />
<glyph unicode="J" horiz-adv-x="887" d="M4 375v105h79v-105q1 -330 319 -330h4q160 0 244 80q83 83 83 295v1042h79v-1072q0 -186 -91 -302q-96 -121 -319 -122q-206 2 -303 119q-95 111 -95 283v7z" />
<glyph unicode="K" horiz-adv-x="1289" d="M80 0v1462h79v-842q240 211 479.5 421t479.5 421h119l-715 -629q46 -78 89 -154t88.5 -149t95.5 -141t109.5 -128t131 -111.5t159.5 -90.5l-8 -71q-101 37 -181.5 90.5t-146.5 117t-119.5 136t-100.5 148t-90 153t-88 150.5l-302 -268v-515h-79z" />
<glyph unicode="L" horiz-adv-x="989" d="M80 0v1462h79v-1383h830v-79h-909z" />
<glyph unicode="M" horiz-adv-x="1539" d="M80 0v1462h98l591 -1348l591 1348h99v-1462h-79v1309q-144 -327 -289 -655t-288 -654h-69l-575 1309v-1309h-79z" />
<glyph unicode="N" horiz-adv-x="1276" d="M80 0v1462h89l947 -1337v1337h79v-1462h-89l-947 1337v-1337h-79z" />
<glyph unicode="O" horiz-adv-x="1464" d="M57 731q0 323 173 538q171 223 501 227q332 -5 506 -227q170 -217 170 -538q0 -157 -43.5 -291t-126.5 -242q-88 -108 -215.5 -169t-290.5 -63q-162 2 -288.5 63t-212.5 169q-85 108 -129 241.5t-44 291.5zM134 731q8 -306 164 -493q78 -97 185.5 -144.5t247.5 -48.5 q140 1 249 48.5t187 144.5q156 187 161 493q-5 310 -161 495q-156 187 -436 191q-280 -4 -433 -191q-156 -185 -164 -495z" />
<glyph unicode="P" horiz-adv-x="1135" d="M80 0v1324q0 46 7.5 73.5t34.5 42.5t80.5 19.5t145.5 4.5q26 0 56 -0.5t64 -0.5q45 0 96 -0.5t111 -0.5q446 -1 452 -408q-1 -197 -133 -303q-130 -103 -339 -103h-496v-648h-79zM159 727h516q166 0 268 87q103 84 105 240q0 325 -373 329q-78 0 -142.5 1t-116.5 3 q-32 1 -63.5 1.5t-54.5 0.5q-42 0 -68.5 -3t-42.5 -10.5t-22 -21t-6 -35.5v-592z" />
<glyph unicode="Q" horiz-adv-x="1490" d="M56 731q0 323 173 538q171 223 501 227q332 -5 506 -227q170 -217 170 -538q0 -174 -49.5 -314.5t-152.5 -252.5q27 -18 56 -38t58.5 -40.5t58 -40t54.5 -36.5l-41 -61l-239 162q-162 -142 -421 -144q-162 2 -288.5 63t-212.5 169q-85 108 -129 241.5t-44 291.5zM134 731 q8 -308 163 -493q78 -97 185.5 -144.5t247.5 -48.5q225 0 370 128h-1l28 26q194 187 200 532q-2 155 -42 278.5t-119 216.5q-156 187 -436 191q-280 -4 -433 -191q-155 -184 -163 -495z" />
<glyph unicode="R" horiz-adv-x="1272" d="M80 0v1462h601q452 0 454 -384q0 -272 -251 -365q47 -12 82 -30q61 -33 93 -90q26 -51 41.5 -138.5t21.5 -202.5q4 -84 15.5 -127.5t31.5 -43.5q5 0 15.5 6t30.5 17l-1 -96q-17 -5 -29 -7.5t-20 -2.5q-55 0 -85.5 59.5t-34.5 180.5q-5 123 -24 209.5t-49 132.5 q-74 86 -298 88h-516v-668h-78zM158 747h512q159 0 272 81q57 41 85 104.5t29 149.5v15q0 280 -365 286h-533v-636z" />
<glyph unicode="S" horiz-adv-x="1207" d="M54 511h79q2 -262 137 -362q136 -104 355 -104h4q170 0 306 79q133 76 137 246q0 51 -11 91.5t-31 69.5q-21 30 -49 53.5t-64 39.5q-72 35 -156 53q-44 11 -85.5 20.5t-86.5 17.5q-10 2 -20.5 5t-21.5 5q-33 8 -65.5 17.5t-64.5 17.5q-45 12 -84.5 27t-74.5 35 q-72 41 -116 110q-46 67 -46 178q0 114 48 188v-1q24 38 53.5 68t65.5 52q38 23 78.5 38t86.5 25q42 8 85 12t88 4h9q217 0 356 -99q143 -107 158 -372h-79q-10 227 -131 310q-115 82 -304 82h-8.5h-9.5q-152 0 -279 -66q-31 -16 -55 -38.5t-43 -51.5q-40 -61 -40 -151 q0 -88 39 -140q40 -52 105 -88q35 -17 73.5 -30t78.5 -23q45 -11 89.5 -22.5t89.5 -22.5l-1 1q52 -11 99.5 -23.5t92.5 -23.5q44 -14 84.5 -31.5t74.5 -36.5q34 -20 62.5 -49t49.5 -64q39 -74 39 -189q-4 -208 -170 -308q-154 -94 -352 -94q-255 0 -413 124 q-161 125 -162 421z" />
<glyph unicode="T" horiz-adv-x="1121" d="M8 1383v79h1104v-79h-513v-1383h-79v1383h-512z" />
<glyph unicode="U" horiz-adv-x="1229" d="M72 550v912h79v-912v-8q1 -242 117 -366q118 -126 345 -131q226 5 345 131t119 374v912h79v-912q-6 -584 -543 -584q-536 0 -541 584z" />
<glyph unicode="V" horiz-adv-x="1257" d="M27 1462h83l526 -1341l511 1341h82l-557 -1462h-71z" />
<glyph unicode="W" horiz-adv-x="1927" d="M50 1462h83l389 -1332q100 332 199.5 666.5t198.5 665.5h88l403 -1332l384 1332h81l-424 -1462h-83l-406 1332q-99 -332 -199.5 -666.5t-198.5 -665.5h-83z" />
<glyph unicode="X" horiz-adv-x="1340" d="M59 0l562 751q-64 85 -131.5 175t-135.5 181t-135.5 180.5t-130.5 174.5h101l482 -647l487 647h99l-534 -711q67 -90 137.5 -185t141.5 -191t141.5 -191t136.5 -184h-98l-511 687q-128 -171 -257 -343.5t-257 -343.5h-98z" />
<glyph unicode="Y" horiz-adv-x="1309" d="M22 1462h96l537 -768l538 768h94l-593 -848v-614h-79v614q-72 102 -146.5 209t-150 215t-150.5 215t-146 209z" />
<glyph unicode="Z" horiz-adv-x="1131" d="M21 0v80l976 1303h-920v79h1018v-80l-975 -1303h990v-79h-1089z" />
<glyph unicode="[" horiz-adv-x="345" d="M82 -349v1830h261v-78h-183v-1674h183v-78h-261z" />
<glyph unicode="\" horiz-adv-x="750" d="M4 1481h81l661 -1515h-81z" />
<glyph unicode="]" horiz-adv-x="347" d="M2 -271h183v1674h-183v78h261v-1830h-261v78z" />
<glyph unicode="^" horiz-adv-x="1072" d="M29 448l476 933h63l475 -933h-82l-425 831q-106 -206 -212.5 -415.5t-211.5 -415.5h-83z" />
<glyph unicode="_" horiz-adv-x="1190" d="M82 -110h1025v-137h-1025v137z" />
<glyph unicode="`" horiz-adv-x="412" d="M7 1481h112l280 -323h-80z" />
<glyph unicode="a" d="M56 270q0 98 34 163q16 29 39 54t49 42t56.5 28.5t62.5 19.5q31 7 62 11t64 4q17 2 33.5 2.5t30.5 1.5q64 4 118 9q38 3 67.5 8t51.5 10q18 6 34 16t27 23q17 25 17 75q0 23 -1.5 47.5t-4.5 47.5q-5 23 -13.5 42.5t-22.5 38.5q-27 41 -78 62l1 -1q-32 11 -70.5 17.5 t-86.5 6.5q-306 -5 -330 -298h-77q9 177 111 276q98 98 296 100h8q139 0 237 -64q101 -72 109 -245v-646q0 -24 5.5 -30.5t13.5 -8.5l85 3q-19 -37 -47 -60.5t-55 -23.5q-31 0 -55.5 27t-24.5 90v53q-39 -62 -109 -112q-114 -81 -278 -83q-161 0 -257 75q-101 75 -102 219z M134 270q0 -35 17 -78q12 -38 41 -64q65 -73 219 -74q95 1 167.5 29t124.5 87q99 112 99 258v144q-8 -5 -16.5 -9t-18.5 -8q-21 -8 -47 -13.5t-55 -8.5q-54 -6 -114.5 -10.5t-124.5 -8.5q-29 -1 -56.5 -3.5t-53.5 -8.5q-24 -6 -48 -16t-47 -25q-40 -21 -61 -68 q-26 -49 -26 -123zM802 572v43l17 -19l14 7l-14 -16t-17 -15z" />
<glyph unicode="b" horiz-adv-x="1016" d="M72 744q0 58 1 105t2 75v523h78v-598q102 221 391 227q223 -4 336 -166q115 -155 115 -386q0 -239 -118 -388q-121 -156 -333 -160q-161 1 -273 94l1 -1q-109 87 -157 229v-1q-13 36 -21.5 88.5t-13 113t-6.5 124t-2 121.5zM153 524q0 -193 104 -329q99 -139 287 -141 q189 2 280 140q93 135 93 330q0 183 -88 328q-42 70 -114.5 106.5t-170.5 39.5q-187 -6 -286.5 -124t-104.5 -350z" />
<glyph unicode="c" horiz-adv-x="1013" d="M57 505q0 115 31 217t89 183q60 81 153 125t220 46q153 0 266 -87q113 -91 139 -283h-78q-27 156 -114 225q-91 67 -213 67q-116 0 -195 -43q-39 -21 -70.5 -50t-55.5 -64q-47 -75 -71 -161q-24 -82 -23 -168v-7q0 -185 101 -316q50 -68 122.5 -101t167.5 -34 q71 0 134 22t113 63q46 42 74 102.5t36 141.5h79q-56 -398 -436 -407q-226 4 -347 160l1 -1q-123 150 -123 370z" />
<glyph unicode="d" horiz-adv-x="1015" d="M21 524q0 231 115 386q113 161 336 166q287 -6 391 -227v598h78v-524q0 -11 0.5 -26.5t0.5 -34.5q0 -26 0.5 -56.5t0.5 -65.5q0 -57 -1.5 -120t-6 -122.5t-12.5 -112t-22 -88.5v1q-48 -142 -156 -229l1 1q-112 -93 -274 -94q-211 4 -332 160q-119 151 -119 388zM99 524 q0 -197 93 -330q91 -138 280 -140q94 1 165.5 35.5t121.5 105.5q104 134 104 329q-5 232 -104 350t-287 124q-98 -3 -170 -39.5t-115 -106.5q-88 -145 -88 -328z" />
<glyph unicode="e" horiz-adv-x="1043" d="M60 526q4 263 145 407h-1q134 143 320 143q122 -2 213 -46.5t148 -125.5q22 -36 41 -78t32.5 -87t21.5 -92t8 -93q0 -8 -0.5 -18.5t-2.5 -36.5h-847q2 -99 24 -174.5t67 -138.5q87 -130 291 -132q313 1 379 336h78q-27 -205 -147 -308q-124 -105 -306 -106 q-242 2 -353 161v-1q-111 151 -111 382v8zM140 577h769q-2 89 -25.5 161.5t-69.5 133.5q-96 124 -287 126q-158 -2 -265 -116q-53 -57 -82.5 -132t-39.5 -173z" />
<glyph unicode="f" horiz-adv-x="403" d="M80 0v1258q1 133 82 165q58 24 126 24h11q28 -1 54 -3.5t50 -7.5v-78q-35 5 -63.5 8t-48.5 3q-83 0 -109 -28q-24 -28 -24 -91v-5v-269h219v-78h-219v-898h-78z" />
<glyph unicode="g" horiz-adv-x="1006" d="M31 560q0 105 30.5 197.5t86.5 165.5q59 74 143.5 113t195.5 40q78 -1 143.5 -22t119.5 -65h-1q54 -43 95.5 -101t58.5 -126v1q22 -69 28.5 -151t6.5 -170v-79t-2 -80q-1 -38 -2 -81t-1 -81v-34t1 -34q-6 -426 -438 -426h-4h-202v77l200 1h2q359 0 364 348v212 q-21 -40 -52 -72t-70 -58q-119 -80 -261 -80q-107 1 -190.5 41t-140.5 113q-111 143 -111 351zM109 560q0 -183 95 -305q92 -120 267 -122q185 2 284 126q99 121 99 301q1 177 -93 306q-89 127 -274 132q-187 -2 -281 -126q-97 -127 -97 -312z" />
<glyph unicode="h" horiz-adv-x="918" d="M82 0v1447h78v-567q34 65 96 115q50 41 113 60.5t141 20.5q170 0 273 -98q104 -100 106 -286v-692h-78v686q-2 168 -87 240v-1q-45 36 -98 54.5t-116 18.5q-173 -5 -259 -118q-44 -60 -67.5 -132.5t-23.5 -154.5v-593h-78z" />
<glyph unicode="i" horiz-adv-x="249" d="M82 0v1053h78v-1053h-78zM82 1209v238h78v-238h-78z" />
<glyph unicode="j" horiz-adv-x="360" d="M0 -270q18 -1 33 -1q100 0 138 22q34 31 34 134v1168h78v-1182q0 -146 -74 -185l1 1q-35 -22 -83 -28q-11 -1 -24 -1.5t-27 -0.5q-28 -1 -76 -9v82zM205 1209v238h78v-238h-78z" />
<glyph unicode="k" horiz-adv-x="1009" d="M82 0v1447h78v-956q169 140 337.5 281t336.5 281h117l-495 -412q41 -90 99.5 -169t129 -149.5t151.5 -134t168 -121.5l-2 -80q-111 60 -206 131t-171.5 148t-134 159t-94.5 164l-236 -196v-393h-78z" />
<glyph unicode="l" horiz-adv-x="250" d="M82 0v1447h78v-1447h-78z" />
<glyph unicode="m" horiz-adv-x="1518" d="M82 0v1053h78v-174q32 64 91 115q45 38 100.5 59.5t117.5 22.5q233 -2 306 -202q8 15 15.5 28.5t17.5 27.5q17 23 37 42.5t40 35.5q45 32 99.5 49.5t113.5 18.5q189 -2 269 -111q73 -105 72 -279v-686h-78v686v5q0 140 -55 227h1q-55 78 -209 80q-141 -1 -216 -99 q-79 -100 -83 -237v-662h-78v671q1 14 1 28q0 120 -48 207l1 -1q-30 43 -75 68q-52 25 -131 25q-71 -2 -127.5 -32.5t-96.5 -84.5q-39 -60 -62 -133.5t-23 -154.5v-593h-78z" />
<glyph unicode="n" horiz-adv-x="964" d="M82 0v1053h78v-173q34 65 96 115q50 41 113 60.5t141 20.5q170 0 273 -98q104 -100 106 -286v-692h-78v686q-2 168 -87 240v-1q-45 36 -98 54.5t-116 18.5q-173 -5 -259 -118q-44 -60 -67.5 -132.5t-23.5 -154.5v-593h-78z" />
<glyph unicode="o" horiz-adv-x="1069" d="M58 526q0 224 123 382q123 164 354 168q233 -4 356 -168q60 -79 89.5 -174.5t29.5 -207.5q0 -110 -29.5 -205t-89.5 -176q-124 -164 -358 -169q-228 4 -352 169q-123 160 -123 381zM136 526q0 -189 105 -329q98 -138 294 -143q197 5 297 143q101 136 101 329t-101 330 q-99 137 -297 142q-197 -5 -294 -142q-105 -143 -105 -330z" />
<glyph unicode="p" horiz-adv-x="1015" d="M72 315q0 57 1.5 120t6 122.5t12.5 112t22 88.5v-1q48 142 156 229v-1q112 93 273 94q212 -4 333 -160q118 -149 118 -388q0 -231 -115 -386q-113 -161 -336 -166q-289 6 -391 227v-598h-78v524q0 11 -0.5 26.5t-0.5 34.5q0 26 -0.5 56.5t-0.5 65.5zM152 531 q5 -232 104.5 -350t286.5 -124q98 3 170 39.5t115 106.5q88 145 88 328q0 195 -93 330q-91 138 -280 140q-188 -2 -287 -141q-104 -136 -104 -329z" />
<glyph unicode="q" horiz-adv-x="1026" d="M23 528q0 244 120 394v-1q120 154 332 155q163 -1 274 -91v1q38 -30 66.5 -66t50.5 -78v211h78v-1402h-78v552q-104 -220 -391 -227q-107 2 -191.5 46.5t-143.5 122.5q-57 79 -87 175t-30 208zM101 528q0 -179 91 -324q43 -72 114.5 -109.5t168.5 -40.5q186 7 286 125.5 t105 348.5q-2 197 -103 334q-100 131 -288 136q-186 -5 -279 -137q-95 -137 -95 -333z" />
<glyph unicode="r" horiz-adv-x="561" d="M81 0v1053h78v-177q35 68 96 118q51 42 129 63q71 19 160 19h17v-78h-14q-205 0 -294 -115q-94 -123 -94 -290v-593h-78z" />
<glyph unicode="s" horiz-adv-x="927" d="M54 385h78q5 -331 350 -331h2q56 0 108 13t102 41q94 51 98 167v-1q0 62 -24 100l1 -1q-14 19 -32.5 34t-41.5 27t-49.5 23t-58.5 20q-25 8 -62 16h1q-17 3 -33.5 6t-33.5 6q-70 16 -127.5 33.5t-104.5 37.5l1 -1q-135 54 -135 228q0 98 85 183q46 42 114 68 q32 11 73.5 16.5t91.5 5.5h10q367 0 377 -362h-79q-1 161 -84 223q-82 61 -224 61q-51 0 -90.5 -6.5t-68.5 -17.5l1 1q-29 -12 -49.5 -28t-34.5 -34q-26 -35 -34 -64q-9 -33 -9 -46q0 -35 6.5 -60t20.5 -45q30 -38 73 -54q53 -19 119 -38.5t139 -37.5l-1 1q30 -6 60 -14 t60 -18h-1q32 -9 59 -20t52 -28h-1q54 -31 82 -81q30 -53 30 -132q-5 -158 -126 -232q-116 -68 -260 -68h-4q-425 0 -426 409z" />
<glyph unicode="t" horiz-adv-x="517" d="M9 975v78h187v291l78 41v-332h229v-78h-229v-758q1 -97 38 -118q17 -11 34 -14q25 -7 46 -7q64 0 106 12v-84q-17 0 -29.5 -0.5t-20.5 -1.5q-10 -3 -26.5 -3.5t-40.5 -0.5q-75 0 -129 47q-27 30 -39 67q-8 21 -12.5 44t-4.5 51v766h-187z" />
<glyph unicode="u" horiz-adv-x="1011" d="M75 360v693h78v-687q1 -82 22.5 -141.5t66.5 -96.5q84 -74 212 -74q174 1 261 123q89 115 89 283v593h78v-702q0 -38 -0.5 -70t-0.5 -58q0 -18 -0.5 -33t-0.5 -28q0 -30 1 -46t5 -22.5t11 -7t18 0.5q3 0 16.5 0.5t16.5 0.5v-88h-11t-14.5 -0.5t-14.5 -0.5h-11 q-31 0 -50.5 4t-30 14.5t-14 29.5t-3.5 50q0 12 0.5 25.5t1.5 30.5v16q-32 -63 -90 -110v1q-99 -83 -257 -84q-163 1 -271 102q-108 98 -108 282z" />
<glyph unicode="v" horiz-adv-x="965" d="M27 1053h90l380 -945l352 945h85l-397 -1053h-75z" />
<glyph unicode="w" horiz-adv-x="1539" d="M52 1053h80l289 -936q75 233 151.5 468.5t150.5 467.5h90l299 -937l295 937h80l-335 -1053h-79l-305 937q-75 -233 -152.5 -469t-152.5 -468h-84z" />
<glyph unicode="x" horiz-adv-x="1059" d="M59 0l422 544q-45 61 -94 125.5t-98 129.5t-97.5 129.5t-93.5 124.5h99l332 -447l340 447h95l-385 -509q49 -65 103 -134t108 -138.5t107.5 -138.5t102.5 -133h-98l-373 483q-92 -120 -185.5 -242t-185.5 -241h-99z" />
<glyph unicode="y" horiz-adv-x="966" d="M41 1053h84l390 -928l350 928h83l-477 -1248q-41 -106 -119 -134q-36 -11 -83 -16q-34 -4 -72 -4q-16 0 -32 1v77q8 0 25.5 -0.5t25.5 -0.5q75 0 112 19q21 10 41 37.5t34 62.5q17 45 35 91t35 91q-53 124 -107.5 253t-109 259t-109 259t-106.5 253z" />
<glyph unicode="z" horiz-adv-x="883" d="M32 0v75l691 900h-637v78h736v-76l-691 -899h723v-78h-822z" />
<glyph unicode="{" horiz-adv-x="455" d="M16 541v67q22 5 38 13t27 21q26 29 42 70l-1 -1q18 47 27.5 98.5t9.5 111.5v325q-7 236 163 235h117v-78h-114q-46 0 -66 -34h1q-24 -45 -24 -158v-324q0 -92 -32 -191q-9 -24 -21 -45.5t-26 -41.5q-11 -13 -21.5 -23t-22.5 -19q52 -37 84 -113q19 -48 29 -100t10 -110 v-319q0 -120 25 -162q19 -36 63 -34h115v-78h-117q-171 0 -163 239v321q0 60 -6.5 109t-18.5 88q-29 79 -118 133z" />
<glyph unicode="|" horiz-adv-x="250" d="M82 -422v2012h78v-2012h-78z" />
<glyph unicode="}" horiz-adv-x="455" d="M16 -271h114q47 0 67 38v-1q22 41 22 155v323q0 49 8.5 98.5t27.5 97.5q21 49 45 84q20 24 44 42q-53 40 -84 112q-18 45 -29.5 98.5t-11.5 110.5v320q0 121 -23 164h1q-21 33 -67 32h-114v78h118q93 0 131 -60q32 -61 32 -178v-322q-1 -59 6 -108t23 -88 q24 -77 113 -134v-67q-70 -15 -103 -100q-20 -45 -29.5 -97.5t-9.5 -115.5v-326q0 -116 -32 -171q-37 -63 -131 -63h-118v78z" />
<glyph unicode="~" horiz-adv-x="1052" d="M59 424q49 93 110 148q62 53 151 54q57 1 120 -18q31 -12 61 -24t59 -26h-1q31 -14 59 -24.5t54 -20.5q49 -23 82 -23q51 2 86 41q22 22 42 47.5t37 56.5l77 -22q-50 -85 -102 -140h1q-56 -61 -143 -61q-23 0 -48 6.5t-52 17.5l1 -1q-11 5 -23 10.5t-23 10.5 q-14 5 -27.5 10.5t-27.5 11.5q-26 12 -51.5 24.5t-53.5 24.5l1 -1q-56 20 -128 22q-54 0 -98 -35q-22 -19 -43 -46.5t-42 -65.5z" />
<glyph unicode="&#xa1;" horiz-adv-x="248" d="M81 -349v1098h78v-1098h-78zM81 876v232h78v-232h-78z" />
<glyph unicode="&#xa2;" horiz-adv-x="964" d="M35 528q0 209 109 370q109 156 311 174v176h78v-174q151 -6 258 -88q113 -89 140 -280h-78q-27 154 -114 221q-43 29 -96 47.5t-110 21.5v-942q66 2 121.5 24t99.5 66q90 86 107 239h80q-32 -195 -131.5 -295.5t-276.5 -110.5v-216h-78v217q-100 11 -179 55.5t-132 123.5 h1q-110 156 -110 371zM113 528q0 -91 23 -170t68 -151q80 -130 251 -151v938q-168 -18 -251 -147q-91 -141 -91 -319z" />
<glyph unicode="&#xa3;" horiz-adv-x="1157" d="M62 27q57 48 101.5 96.5t75.5 99.5q62 96 65 209q-2 75 -15 136.5t-40 112.5h-159v77h118l-2 6q-18 32 -35.5 67.5t-35.5 71.5l1 -1q-52 96 -54 192q5 202 148 297q133 90 318 90q241 -2 370 -138q54 -58 80 -133.5t26 -169.5q0 -19 -1 -41.5t-4 -51.5h-78q2 30 2.5 46.5 t0.5 30.5q0 173 -92 268q-111 111 -304 111q-151 0 -269 -73h1q-118 -74 -120 -236q2 -86 50 -172q26 -48 46 -85.5t41 -78.5h319v-77h-282q50 -118 47 -249q-2 -88 -31 -164.5t-85 -143.5q52 20 107 20q27 0 53.5 -4t52.5 -12l48 -16t48 -18q97 -48 183 -50q87 0 151 44 q34 21 71 52.5t79 75.5l52 -54q-99 -113 -177 -154q-41 -20 -84.5 -31t-91.5 -11q-50 0 -102 18q-26 8 -50.5 16t-50.5 16q-49 23 -94.5 35.5t-88.5 14.5q-130 -3 -247 -107z" />
<glyph unicode="&#xa4;" horiz-adv-x="1159" d="M71 690q5 187 124 330l-113 114l54 55l113 -113q147 122 331 122q94 0 176.5 -30t154.5 -92l113 113l55 -55l-113 -113q62 -72 92 -154.5t30 -176.5q0 -181 -123 -331q27 -26 57.5 -57t56.5 -55l-55 -55l-114 113q-72 -61 -153.5 -91.5t-176.5 -32.5q-92 0 -174 31.5 t-157 92.5q-27 -26 -57.5 -57t-55.5 -56l-54 55l112 112q-123 150 -123 331zM149 690q2 -183 129 -302q120 -128 302 -129q183 1 306 129q63 61 93 136t31 166q-1 91 -31 167t-93 139t-139 93t-167 31q-182 -1 -302 -124q-127 -122 -129 -306z" />
<glyph unicode="&#xa5;" horiz-adv-x="1131" d="M25 1447h88l453 -742q112 185 226.5 371.5t226.5 370.5h88l-468 -767h254v-78h-290v-163h290v-78h-290v-361h-78v361h-290v78h290v163h-290v78h257q-114 189 -234 384.5t-233 382.5z" />
<glyph unicode="&#xa6;" horiz-adv-x="207" d="M82 -175v531h78v-531h-78zM82 811v532h78v-532h-78z" />
<glyph unicode="&#xa7;" horiz-adv-x="1004" d="M49 710q2 104 73 183v-1q57 64 125 97q-14 15 -27.5 32.5t-24.5 37.5v-1q-36 57 -36 141q0 90 38 147q36 56 91 86q108 51 202 49q166 -1 263 -105q92 -106 94 -299h-78q-8 320 -283 326q-18 0 -38.5 -2t-43.5 -6l2 1q-44 -10 -85 -36h1q-37 -22 -62 -63 q-25 -38 -23 -101q2 -35 10 -61.5t23 -46.5q14 -20 32 -38.5t40 -34.5h-1q32 -21 63 -40t63 -35q32 -17 68 -38t73 -46q49 -31 93 -61.5t80.5 -59t64.5 -54t46 -47.5q19 -24 33 -49t22 -52q12 -54 12 -111q0 -30 -6.5 -57t-20.5 -50l1 1q-24 -50 -64 -87q-31 -29 -61 -49.5 t-62 -34.5q30 -27 49 -52.5t32 -54.5q20 -52 20 -98q0 -8 -0.5 -16t-1.5 -16q-14 -141 -113 -211q-100 -70 -228 -70q-363 5 -365 421h78q-2 -169 67 -252q64 -85 220 -91h-1h1h1h-1q68 3 120 21.5t84 50.5q27 36 43 69.5t16 63.5q1 75 -24 123l1 -1q-28 49 -127 118v-1 q-76 51 -162 106t-185 117q-69 48 -114.5 91t-67.5 83q-41 77 -39 164zM127 694q0 -19 6 -46q3 -13 8.5 -27.5t14.5 -31.5l-1 1q9 -18 24 -35t35 -35q18 -20 43 -40.5t58 -43.5h-1q104 -63 191.5 -120.5t169.5 -114.5q29 9 62 28t66 45q18 15 32.5 31.5t23.5 34.5 q22 37 22 84q0 24 -2.5 46t-7.5 42v-2q-7 20 -18.5 40t-28.5 39q-64 79 -260 201h1q-17 10 -33 20t-33 19q-51 30 -94.5 55.5t-88.5 51.5q-9 -2 -19.5 -7.5t-25.5 -13.5q-29 -14 -65 -45q-15 -14 -30.5 -33.5t-26.5 -39.5l1 1q-23 -46 -23 -104z" />
<glyph unicode="&#xa8;" horiz-adv-x="551" d="M82 1164v198h78v-198h-78zM389 1164v198h78v-198h-78z" />
<glyph unicode="&#xa9;" horiz-adv-x="1627" d="M56 724q5 324 223 538q215 215 534 219q163 -2 296.5 -57t242.5 -162q106 -108 161 -242t57 -296q-2 -162 -57 -295.5t-161 -239.5q-215 -218 -539 -223q-319 5 -534 223q-109 107 -165 240.5t-58 294.5zM134 724q2 -144 51 -263.5t148 -216.5q192 -195 480 -200 q290 5 482 200q193 191 197 480q-5 290 -197 481q-192 194 -482 198q-288 -4 -480 -198q-99 -97 -148 -217t-51 -264zM381 712q0 204 120 336q117 131 328 133q148 0 254 -79q106 -82 133 -258h-79q-21 142 -105 199q-87 60 -203 60q-176 -2 -271 -110q-99 -108 -99 -279 q0 -169 103 -281q97 -116 273 -118q104 0 187 67q85 67 118 201h78q-36 -167 -138 -254h1q-100 -92 -246 -92q-210 1 -330 141v-1q-123 130 -124 335z" />
<glyph unicode="&#xaa;" horiz-adv-x="741" d="M57 909q0 61 25 106q26 42 63 61q80 39 174 40q47 1 88 3.5t77 7.5q58 7 59 58q0 142 -173 141q-179 -5 -195 -166h-78q21 240 273 244q107 0 174 -41q69 -44 77 -154v-375q0 -8 2.5 -11t5.5 -6q8 -9 16 -3t15 18t14 27t13 25v-82q4 -8 -3 -20t-20.5 -22.5t-31.5 -15.5 t-36 2q-53 11 -53 70q-70 -90 -246 -92q-23 0 -44 2.5t-42 8.5q-20 5 -41 13.5t-35 18.5q-77 41 -78 142zM135 909q2 -55 47 -80q48 -26 115 -26q119 0 184 62q62 59 62 149v56q-28 -16 -74 -21q-34 -3 -71 -6t-78 -5q-39 -2 -73 -10t-61 -20q-50 -25 -51 -99zM543 1070v38 l17 -18l14 6q-15 -17 -31 -26z" />
<glyph unicode="&#xab;" horiz-adv-x="515" d="M23 525v45l242 327v-135l-159 -214q38 -52 79.5 -107.5t79.5 -107.5v-133zM207 525v45l242 327v-135l-159 -214q38 -52 79.5 -107.5t79.5 -107.5v-133z" />
<glyph unicode="&#xac;" horiz-adv-x="1116" d="M0 671v78h1033v-566h-78v488h-955z" />
<glyph unicode="&#xad;" horiz-adv-x="549" d="M82 509v78h383v-78h-383z" />
<glyph unicode="&#xae;" horiz-adv-x="1627" d="M56 724q5 324 223 538q215 215 534 219q163 -2 296.5 -57t242.5 -162q106 -108 161 -242t57 -296q-2 -162 -57 -295.5t-161 -239.5q-215 -218 -539 -223q-319 5 -534 223q-109 107 -165 240.5t-58 294.5zM134 724q2 -144 51 -263.5t148 -216.5q192 -195 480 -200 q290 5 482 200q193 191 197 480q-5 290 -197 481q-192 194 -482 198q-288 -4 -480 -198q-99 -97 -148 -217t-51 -264zM545 266v887h298q301 -4 299 -248q0 -113 -72 -174q-29 -24 -63.5 -40t-71.5 -22q31 -48 64.5 -99.5t67.5 -103.5t67 -102.5t64 -97.5h-96l-253 394 q-10 -1 -25.5 -1h-25.5h-175v-393h-78zM623 737h186q21 0 43.5 2t46.5 6q12 2 23 4l22 4h-1q11 4 21 7.5t20 7.5l-1 -1q36 15 58 50q23 32 23 88q0 28 -3.5 50t-12.5 38l1 -1q-19 34 -50 49h1q-67 35 -161 34h-216v-338z" />
<glyph unicode="&#xaf;" horiz-adv-x="661" d="M82 1239v78h496v-78h-496z" />
<glyph unicode="&#xb0;" horiz-adv-x="715" d="M56 1102q1 61 24 115t65 98q86 87 212 89q132 -1 215 -89h-1q85 -87 87 -213q-1 -128 -84 -215q-86 -89 -217 -90q-63 1 -116.5 23.5t-95.5 64.5q-43 43 -65.5 97t-23.5 120zM134 1102q2 -99 69 -162q62 -63 154 -65q96 0 159 67q32 32 47.5 72t16.5 88q0 95 -62 158h1 q-62 64 -162 66q-92 -2 -154 -68q-67 -65 -69 -156z" />
<glyph unicode="&#xb1;" horiz-adv-x="1045" d="M6 0v78h1033v-78h-1033zM6 568v78h478v391h78v-391h477v-78h-477v-391h-78v391h-478z" />
<glyph unicode="&#xb2;" horiz-adv-x="729" d="M63 546q0 80 27 131q14 23 30.5 44.5t36.5 40.5v-1q19 18 43 35.5t50 33.5l18 12t17 12q15 10 29.5 18.5t29.5 19.5q105 63 174 135q69 63 70 152q-2 73 -55 110q-60 37 -155 37q-231 -5 -221 -239h-79q1 81 19.5 141t52.5 98q35 37 92.5 57.5t135.5 20.5q120 0 202 -50 q83 -56 86 -175q0 -39 -10 -78q-12 -42 -42 -83q-31 -38 -85.5 -84t-132.5 -99q-51 -32 -94 -62t-80 -59l1 1q-52 -42 -71 -91h537v-78h-626z" />
<glyph unicode="&#xb3;" horiz-adv-x="769" d="M56 857h77q-6 -135 63 -187q73 -59 195 -59q98 0 170 48q34 22 50 54t17 76q0 26 -4 46.5t-14 36.5q-9 15 -22 27t-29 23q-34 22 -73 29q-23 4 -45.5 6t-47.5 2h-66v80h70q89 0 155 35q31 16 45.5 44.5t15.5 68.5q0 50 -14 72q-8 12 -19.5 21.5t-27.5 18.5 q-35 12 -75 19.5t-82 7.5q-235 1 -237 -223h-78q0 157 90 231q88 70 227 70q28 0 53 -2t51 -6q51 -8 94 -35q20 -10 38 -26t31 -39v1q27 -44 27 -110q0 -93 -61 -148q-14 -14 -30 -24t-34 -18q39 -14 71 -39h-1q69 -55 70 -169q-1 -121 -94 -190q-92 -66 -219 -66 q-161 0 -251 80q-95 83 -86 244z" />
<glyph unicode="&#xb4;" horiz-adv-x="428" d="M12 1158l297 323h112l-327 -323h-82z" />
<glyph unicode="&#xb5;" horiz-adv-x="923" d="M82 -349v1402h76v-687q2 -166 90 -238q83 -74 213 -74q173 2 260 123q89 116 89 283v593h78v-1053h-78v173q-35 -65 -92 -113q-102 -83 -257 -84q-52 0 -100.5 12t-92.5 33q-65 32 -108 94v-464h-78z" />
<glyph unicode="&#xb6;" horiz-adv-x="984" d="M24 1041q6 402 460 406h417v-1723h-77v1645h-283v-1645h-78v923q-99 2 -174 31t-137 86h1q-127 114 -129 277z" />
<glyph unicode="&#xb7;" horiz-adv-x="281" d="M56 690q0 35 26 59q22 24 57 24q80 -1 82 -83q0 -37 -23 -58v1q-27 -25 -59 -25q-35 0 -57 25q-26 23 -26 57z" />
<glyph unicode="&#xb8;" horiz-adv-x="477" d="M29 -320l34 74q80 -35 154 -37q54 0 97 22q34 18 37 63q-1 31 -26 44q-31 16 -63 16q-29 0 -56.5 -7t-51.5 -22l-54 39l129 167h87l-72 -99h18q68 0 114 -29q52 -33 53 -108q-2 -93 -66 -132q-57 -32 -147 -32q-53 2 -95 15h1q-23 5 -44 11t-49 15z" />
<glyph unicode="&#xb9;" horiz-adv-x="397" d="M0 1157v77q43 14 77 30t60 33v-1q48 32 105 94h71v-844h-78v731q-33 -33 -76 -55v1q-31 -19 -71 -35t-88 -31z" />
<glyph unicode="&#xba;" horiz-adv-x="749" d="M58 1066q0 139 84 237h-1q81 100 234 101q153 -1 237 -102q78 -99 78 -236q0 -135 -78 -234q-81 -107 -239 -108q-151 1 -232 108l1 -1q-84 100 -84 235zM136 1066q0 -100 66 -183q59 -80 173 -80q113 0 175 80q62 82 62 183q0 103 -62 183v-1q-63 77 -175 78 q-112 -2 -173 -78q-32 -41 -49 -86t-17 -96z" />
<glyph unicode="&#xbb;" horiz-adv-x="531" d="M82 200v133l159 215q-38 53 -79.5 108t-79.5 106v135l242 -327v-45zM266 200v133l159 215q-38 53 -79.5 108t-79.5 106v135l242 -327v-45z" />
<glyph unicode="&#xbc;" horiz-adv-x="1365" d="M44 1157v77q43 14 77 30t59 33v-1q23 16 49.5 39t55.5 55h72v-844h-78v733q-17 -17 -35.5 -31.5t-41.5 -25.5l1 1q-32 -19 -71.5 -35t-87.5 -31zM110 -67l965 1514h91l-964 -1514h-92zM659 201v75l436 568h78v-565h150v-78h-150v-201h-78v201h-436zM760 279h335l15 456 q-86 -112 -174 -226.5t-176 -229.5zM1110 735l1 29l15 -9q-5 -5 -8.5 -10t-7.5 -10z" />
<glyph unicode="&#xbd;" horiz-adv-x="1511" d="M49 1157v77q85 29 136 63v-1q23 16 49.5 39t55.5 55h72v-844h-78v731q-35 -33 -77 -55v1q-31 -19 -70.5 -35t-87.5 -31zM96 -67l963 1514h93l-965 -1514h-91zM852 0q0 39 7 71.5t20 58.5q25 46 68 85h-1q20 18 42.5 35t49.5 34q8 5 15.5 9.5t15.5 9.5q17 11 32.5 21.5 t32.5 22.5q53 30 95.5 64t77.5 70q68 63 69 152q-2 75 -54 110h1q-60 36 -156 36q-230 -3 -221 -239h-79q1 79 19.5 138.5t53.5 100.5q34 38 91.5 58t135.5 20q122 0 201 -50q84 -54 86 -174q0 -38 -9 -78q-10 -41 -42 -84q-29 -38 -84.5 -84.5t-133.5 -97.5 q-102 -65 -174 -121l1 1q-56 -48 -70 -91h536v-78h-626z" />
<glyph unicode="&#xbe;" horiz-adv-x="1563" d="M50 857h78q-8 -134 62 -187q73 -59 195 -59q98 0 170 48q66 41 68 130q-2 96 -70 135q-34 22 -73 29q-23 4 -45.5 6t-47.5 2q-11 0 -31.5 -1t-34.5 -2v81h70q89 0 155 35q31 16 45.5 44.5t15.5 68.5q0 49 -13 72q-15 22 -48 40q-35 12 -75 19.5t-82 7.5q-235 1 -237 -223 h-78q0 157 90 231q88 70 227 70q28 0 53.5 -2t50.5 -6q51 -8 94 -35q20 -10 38 -26t32 -39q26 -44 26 -109q0 -93 -61 -148q-14 -14 -30 -24t-34 -18q39 -14 71 -39q68 -55 70 -169q-1 -121 -95 -190q-92 -66 -219 -66q-160 0 -250 80q-96 81 -87 244zM314 -67l965 1514h91 l-963 -1514h-93zM852 201v75l435 568h79v-565h150v-78h-150v-201h-78v201h-436zM952 279h336l16 456q-87 -112 -175.5 -226.5t-176.5 -229.5zM1304 735l1 29l14 -9q-8 -8 -15 -20z" />
<glyph unicode="&#xbf;" horiz-adv-x="906" d="M27 -26q1 150 78 243l-1 -1q33 42 63 74t59 52l-2 -1q54 50 90.5 93t57.5 85q42 79 42 230h78q0 -75 -11 -136.5t-31 -109.5q-45 -100 -158 -206l-1 -1q-5 -5 -13 -11q-6 -5 -13 -11t-15 -13q-16 -13 -31 -29t-31 -36t-30 -43.5t-27 -51.5v1q-14 -28 -20 -60.5t-6 -67.5 q2 -129 93 -198q91 -71 237 -71q191 2 283 116q93 109 85 314h78q8 -233 -108 -367q-116 -139 -338 -141q-86 0 -157.5 23t-128.5 68q-57 44 -89 109t-33 147zM416 876v232h78v-232h-78z" />
<glyph unicode="&#xc0;" horiz-adv-x="1302" d="M28 0l594 1462h80l577 -1462h-87l-187 468h-698q-46 -114 -95 -234.5t-94 -233.5h-90zM338 547h635q-79 203 -156 403t-155 404q-83 -207 -162 -403.5t-162 -403.5zM417 1851h113l283 -326h-81zM645 1396l17 -12l16 12q-4 -11 -8 -21t-8 -21q-5 11 -9 21t-8 21z" />
<glyph unicode="&#xc1;" horiz-adv-x="1302" d="M21 0l594 1462h80l577 -1462h-87l-187 468h-698q-46 -114 -95 -234.5t-94 -233.5h-90zM331 547h635q-79 203 -156 403t-155 404q-83 -207 -162 -403.5t-162 -403.5zM510 1525l300 326h113l-330 -326h-83zM638 1396l17 -12l16 12q-4 -11 -8 -21t-8 -21q-5 11 -9 21t-8 21z " />
<glyph unicode="&#xc2;" horiz-adv-x="1315" d="M31 0l594 1462h80l577 -1462h-87l-187 468h-698q-46 -114 -95 -234.5t-94 -233.5h-90zM341 547h635q-79 203 -156 403t-155 404q-83 -207 -162 -403.5t-162 -403.5zM388 1535l257 316h48l260 -316h-89l-196 234q-46 -58 -95 -117.5t-94 -116.5h-91zM648 1396l17 -12 l16 12q-4 -11 -8 -21t-8 -21q-5 11 -9 21t-8 21z" />
<glyph unicode="&#xc3;" horiz-adv-x="1300" d="M24 0l594 1462h80l577 -1462h-87l-187 468h-698q-46 -114 -95 -234.5t-94 -233.5h-90zM334 547h635q-79 203 -156 403t-155 404q-83 -207 -162 -403.5t-162 -403.5zM379 1555q2 85 49 140l-1 -1q45 57 106 58q21 0 40 -5t38 -13q16 -8 31 -17.5t31 -19.5q3 -3 5 -4 q17 -11 32 -21t31 -19q26 -17 46 -17q38 0 59 28q19 28 19 81h79q0 -83 -37 -138q-39 -50 -120 -50q-37 0 -77 23q-19 10 -34.5 20t-31.5 21q-11 8 -25.5 18.5t-28.5 19.5q-14 6 -28 10t-28 4q-32 -1 -52 -30q-24 -32 -24 -88h-79zM641 1396l17 -12l16 12q-4 -11 -8 -21 t-8 -21q-5 11 -9 21t-8 21z" />
<glyph unicode="&#xc4;" horiz-adv-x="1300" d="M24 0l594 1462h80l577 -1462h-87l-187 468h-698q-46 -114 -95 -234.5t-94 -233.5h-90zM334 547h635q-79 203 -156 403t-155 404q-83 -207 -162 -403.5t-162 -403.5zM469 1531v201h79v-201h-79zM641 1396l17 -12l16 12q-4 -11 -8 -21t-8 -21q-5 11 -9 21t-8 21zM780 1531 v201h78v-201h-78z" />
<glyph unicode="&#xc5;" horiz-adv-x="1316" d="M31 0l594 1462h80l577 -1462h-87l-187 468h-698q-46 -114 -95 -234.5t-94 -233.5h-90zM341 547h635q-79 203 -156 403t-155 404q-83 -207 -162 -403.5t-162 -403.5zM476 1662q0 42 18 78q7 17 17 31t24 28q57 56 136 57q40 -1 74 -14.5t63 -42.5q55 -55 57 -137 q-1 -41 -14.5 -75t-42.5 -63q-56 -57 -137 -57t-136 57q-58 58 -59 138zM555 1663q1 -49 36 -82q15 -18 35.5 -26.5t44.5 -8.5q50 0 83 36q33 33 33 80q0 51 -33 84q-32 32 -83 32q-49 0 -80 -32q-34 -34 -36 -83zM648 1396l17 -12l16 12q-4 -11 -8 -21t-8 -21q-5 11 -9 21 t-8 21z" />
<glyph unicode="&#xc6;" horiz-adv-x="1795" d="M31 0l774 1462h966v-79h-782v-583h718v-79h-718v-642h782v-79h-860v546h-504q-71 -134 -144 -273t-145 -273h-87zM449 625h462v762h-63q-51 -98 -100.5 -192.5t-99 -188t-99 -188.5t-100.5 -193z" />
<glyph unicode="&#xc7;" horiz-adv-x="1393" d="M44 719q-1 141 39.5 271.5t118.5 249.5q81 123 214.5 187.5t316.5 68.5q293 -6 439 -170v1q147 -161 149 -330h-78q-13 173 -149 294q-134 122 -361 126q-169 -1 -284 -67q-57 -32 -104.5 -76t-82.5 -95q-68 -110 -104.5 -227.5t-35.5 -232.5q0 -137 39 -254t117 -217 q149 -198 429 -203q125 1 222.5 38.5t169.5 115.5q143 149 177 398h80q-20 -143 -72.5 -258t-130.5 -198q-79 -77 -188 -123.5t-238 -51.5q-5 -6 -10 -13t-10 -13q4 1 8.5 0.5t9.5 -0.5q68 0 116 -30q51 -33 53 -110q-1 -45 -18.5 -79t-49.5 -53q-29 -16 -66 -24.5t-82 -8.5 q-28 1 -52 5t-44 11h1q-23 5 -44.5 10.5t-49.5 15.5l34 75q42 -19 80.5 -28t75.5 -10q56 0 99 22q35 20 37 65q-3 32 -27 43q-16 9 -32 13t-31 4q-57 0 -109 -29l-56 39l78 100q-125 15 -232.5 74.5t-185.5 146.5q-84 102 -129.5 235.5t-46.5 291.5z" />
<glyph unicode="&#xc8;" horiz-adv-x="1055" d="M65 0v1462h983v-79h-905v-583h851v-79h-851v-642h912v-79h-990zM269 1851h113l283 -326h-81z" />
<glyph unicode="&#xc9;" horiz-adv-x="1050" d="M59 0v1462h983v-79h-905v-583h851v-79h-851v-642h912v-79h-990zM363 1525l300 326h113l-330 -326h-83z" />
<glyph unicode="&#xca;" horiz-adv-x="1059" d="M67 0v1462h983v-79h-905v-583h851v-79h-851v-642h912v-79h-990zM237 1535l258 316h48l259 -316h-89l-196 234q-46 -58 -94.5 -117.5t-94.5 -116.5h-91z" />
<glyph unicode="&#xcb;" horiz-adv-x="1060" d="M69 0v1462h983v-79h-905v-583h851v-79h-851v-642h912v-79h-990zM329 1531v201h79v-201h-79zM640 1531v201h79v-201h-79z" />
<glyph unicode="&#xcc;" horiz-adv-x="422" d="M3 1851h113l284 -326h-81zM219 0v1462h78v-1462h-78z" />
<glyph unicode="&#xcd;" horiz-adv-x="435" d="M19 1525l300 326h113l-330 -326h-83zM136 0v1462h79v-1462h-79z" />
<glyph unicode="&#xce;" horiz-adv-x="595" d="M14 1535l258 316h48l260 -316h-90l-196 234q-46 -58 -94.5 -117.5t-93.5 -116.5h-92zM263 0v1462h79v-1462h-79z" />
<glyph unicode="&#xcf;" horiz-adv-x="424" d="M17 1531v201h78v-201h-78zM175 0v1462h79v-1462h-79zM327 1531v201h79v-201h-79z" />
<glyph unicode="&#xd0;" horiz-adv-x="1386" d="M56 721v79h128v662h518q113 0 221 -31q56 -19 106.5 -48.5t95.5 -70.5h-1q95 -83 148 -223q26 -71 39.5 -160t14.5 -198q-2 -195 -54.5 -334t-155.5 -227q-203 -170 -477 -170h-455v721h-128zM263 79h386q253 0 423 160q172 161 176 492q0 100 -12 183q-12 77 -35 141 q-48 127 -127 198q-78 72 -178 104h1q-48 13 -99 19.5t-107 6.5h-428v-583h591v-79h-591v-642z" />
<glyph unicode="&#xd1;" horiz-adv-x="1248" d="M66 0v1462h89l947 -1337v1337h79v-1462h-89l-947 1337v-1337h-79zM351 1555q2 85 49 140l-1 -1q45 56 106 58q21 0 40 -5t38 -13q16 -8 31 -17.5t31 -19.5q2 -1 2.5 -2t2.5 -2q17 -11 32 -21t31 -19q26 -17 46 -17q38 0 59 28q19 28 19 81h79q0 -85 -37 -138 q-39 -50 -120 -50q-37 0 -77 23q-19 10 -34.5 20t-31.5 21q-11 8 -25.5 18.5t-28.5 19.5q-14 6 -28 10t-28 4q-32 -1 -52 -30q-24 -32 -24 -88h-79z" />
<glyph unicode="&#xd2;" horiz-adv-x="1436" d="M44 731q0 323 173 538q171 223 501 227q332 -5 506 -227q170 -217 170 -538q0 -157 -43.5 -291t-126.5 -242q-88 -108 -215.5 -169t-290.5 -63q-162 2 -288.5 63t-212.5 169q-85 108 -129 241.5t-44 291.5zM121 731q8 -306 164 -493q78 -97 185.5 -144.5t247.5 -48.5 q140 1 249 48.5t187 144.5q156 187 161 493q-5 310 -161 495q-156 187 -436 191q-280 -4 -433 -191q-156 -185 -164 -495zM484 1851h112l284 -326h-81z" />
<glyph unicode="&#xd3;" horiz-adv-x="1435" d="M40 731q0 323 173 538q171 223 501 227q332 -5 506 -227q170 -217 170 -538q0 -157 -43.5 -291t-126.5 -242q-88 -108 -215.5 -169t-290.5 -63q-162 2 -288.5 63t-212.5 169q-85 108 -129 241.5t-44 291.5zM117 731q8 -306 164 -493q78 -97 185.5 -144.5t247.5 -48.5 q140 1 249 48.5t187 144.5q156 187 161 493q-5 310 -161 495q-156 187 -436 191q-280 -4 -433 -191q-156 -185 -164 -495zM578 1525l300 326h113l-330 -326h-83z" />
<glyph unicode="&#xd4;" horiz-adv-x="1441" d="M45 731q0 323 173 538q171 223 501 227q332 -5 506 -227q170 -217 170 -538q0 -157 -43.5 -291t-126.5 -242q-88 -108 -215.5 -169t-290.5 -63q-162 2 -288.5 63t-212.5 169q-85 108 -129 241.5t-44 291.5zM122 731q8 -306 164 -493q78 -97 185.5 -144.5t247.5 -48.5 q140 1 249 48.5t187 144.5q156 187 161 493q-5 310 -161 495q-156 187 -436 191q-280 -4 -433 -191q-156 -185 -164 -495zM451 1535l257 316h48l260 -316h-90l-195 234q-46 -58 -95 -117.5t-94 -116.5h-91z" />
<glyph unicode="&#xd5;" horiz-adv-x="1447" d="M48 731q0 323 173 538q171 223 501 227q332 -5 506 -227q170 -217 170 -538q0 -157 -43.5 -291t-126.5 -242q-88 -108 -215.5 -169t-290.5 -63q-162 2 -288.5 63t-212.5 169q-85 108 -129 241.5t-44 291.5zM125 731q8 -306 164 -493q78 -97 185.5 -144.5t247.5 -48.5 q140 1 249 48.5t187 144.5q156 187 161 493q-5 310 -161 495q-156 187 -436 191q-280 -4 -433 -191q-156 -185 -164 -495zM451 1555q2 85 49 140l-1 -1q45 57 106 58q21 0 40 -5t38 -13q16 -8 31 -17.5t31 -19.5q3 -3 5 -4q17 -11 32 -21t31 -19q26 -17 46 -17q38 0 59 28 q19 28 19 81h79q0 -83 -37 -138q-39 -50 -120 -50q-37 0 -77 23q-19 10 -34.5 20t-31.5 21q-11 8 -25.5 18.5t-28.5 19.5q-14 6 -28 10t-28 4q-32 -1 -52 -30q-24 -32 -24 -88h-79z" />
<glyph unicode="&#xd6;" horiz-adv-x="1447" d="M48 731q0 323 173 538q171 223 501 227q332 -5 506 -227q170 -217 170 -538q0 -157 -43.5 -291t-126.5 -242q-88 -108 -215.5 -169t-290.5 -63q-162 2 -288.5 63t-212.5 169q-85 108 -129 241.5t-44 291.5zM125 731q8 -306 164 -493q78 -97 185.5 -144.5t247.5 -48.5 q140 1 249 48.5t187 144.5q156 187 161 493q-5 310 -161 495q-156 187 -436 191q-280 -4 -433 -191q-156 -185 -164 -495zM544 1531v201h79v-201h-79zM855 1531v201h78v-201h-78z" />
<glyph unicode="&#xd7;" horiz-adv-x="1000" d="M71 144l375 374l-375 375l54 53l373 -377l377 377l54 -53l-375 -375q92 -91 188 -187l187 -187l-54 -55l-377 376q-93 -93 -187 -188t-186 -188z" />
<glyph unicode="&#xd8;" horiz-adv-x="1477" d="M64 731q0 323 173 538q171 223 501 227q298 -4 466 -188q28 31 59 64.5t57 62.5l61 -47l-125 -138q76 -103 117 -235t41 -284q0 -157 -43.5 -291t-126.5 -242q-88 -108 -215.5 -169t-290.5 -63q-300 4 -468 192q-34 -38 -70.5 -78t-68.5 -77l-61 49l148 164 q-78 106 -116 234t-38 281zM141 731q2 -134 36.5 -249.5t96.5 -205.5l877 974q-76 83 -178.5 124t-234.5 43q-280 -4 -433 -191q-156 -185 -164 -495zM324 217q75 -87 177.5 -129t236.5 -43q140 1 249 48.5t187 144.5q156 187 161 493q-2 134 -38 250.5t-96 205.5z" />
<glyph unicode="&#xd9;" horiz-adv-x="1192" d="M56 550v912h79v-912q-2 -248 116.5 -374t345.5 -131q226 5 345 131t119 374v912h79v-912q-6 -584 -543 -584q-536 0 -541 584zM358 1851h113l283 -326h-81z" />
<glyph unicode="&#xda;" horiz-adv-x="1192" d="M51 550v912h79v-912q-2 -248 116.5 -374t345.5 -131q226 5 345 131t119 374v912h79v-912q-6 -584 -543 -584q-536 0 -541 584zM451 1525l300 326h113l-330 -326h-83z" />
<glyph unicode="&#xdb;" horiz-adv-x="1201" d="M58 550v912h79v-912q-2 -248 116.5 -374t345.5 -131q226 5 345 131t119 374v912h79v-912q-6 -584 -543 -584q-536 0 -541 584zM326 1535l258 316h48l259 -316h-89l-196 234q-46 -58 -94.5 -117.5t-94.5 -116.5h-91z" />
<glyph unicode="&#xdc;" horiz-adv-x="1207" d="M61 550v912h79v-912q-2 -248 116.5 -374t345.5 -131q226 5 345 131t119 374v912h79v-912q-6 -584 -543 -584q-536 0 -541 584zM417 1531v201h79v-201h-79zM728 1531v201h79v-201h-79z" />
<glyph unicode="&#xdd;" horiz-adv-x="1285" d="M9 1462h96l537 -768l538 768h94l-593 -848v-614h-79v614q-72 102 -146.5 209t-150 215t-150.5 215t-146 209zM502 1569l300 326h113l-330 -326h-83z" />
<glyph unicode="&#xde;" horiz-adv-x="1131" d="M82 0v1462h79v-247h516q446 -1 452 -408q-2 -198 -133 -303q-130 -103 -339 -103h-496v-401h-79zM161 480h516q166 0 268 87q103 84 105 240q0 325 -373 329h-516v-656z" />
<glyph unicode="&#xdf;" horiz-adv-x="954" d="M78 0v1117q0 48 8.5 90t24.5 79q34 70 85 110q106 77 248 75q156 0 265 -89h-1q117 -90 119 -256q0 -130 -66 -218q-46 -66 -124 -97q118 -29 183 -108q80 -106 80 -269q2 -204 -111 -319q-118 -123 -421 -115v79q14 -1 37.5 -2t36.5 -1q165 0 264 69q114 77 116 289 q0 102 -32 171v-1q-30 64 -86 99h1q-107 62 -281 62q-10 0 -28 -0.5t-28 -0.5v78q170 -7 278 60h-1q103 63 104 224q-2 129 -86 197q-83 70 -219 70q-36 0 -87 -6h2q-24 -5 -48 -14.5t-47 -23.5q-46 -28 -76 -85q-32 -58 -32 -154v-1110h-78z" />
<glyph unicode="&#xe0;" d="M56 270q0 98 34 163q16 29 39 54t49 42t56.5 28.5t62.5 19.5q31 7 62 11t64 4q17 2 33.5 2.5t30.5 1.5q64 4 118 9q38 3 67.5 8t51.5 10q18 6 34 16t27 23q17 25 17 75q0 23 -1.5 47.5t-4.5 47.5q-5 23 -13.5 42.5t-22.5 38.5q-27 41 -78 62l1 -1q-32 11 -70.5 17.5 t-86.5 6.5q-306 -5 -330 -298h-77q9 177 111 276q98 98 296 100q145 2 245 -64q101 -72 109 -245v-646q0 -24 5.5 -30.5t13.5 -8.5l85 3q-19 -37 -47 -60.5t-55 -23.5q-31 0 -55.5 27t-24.5 90v53q-39 -62 -109 -112q-114 -81 -278 -83q-161 0 -257 75q-101 75 -102 219z M134 270q0 -35 17 -78q12 -38 41 -64q65 -73 219 -74q95 1 167.5 29t124.5 87q99 112 99 258v144q-8 -5 -16.5 -9t-18.5 -8q-21 -8 -47 -13.5t-55 -8.5q-54 -6 -114.5 -10.5t-124.5 -8.5q-29 -1 -56.5 -3.5t-53.5 -8.5q-24 -6 -48 -16t-47 -25q-40 -21 -61 -68 q-26 -49 -26 -123zM296 1481h112l280 -323h-80zM802 572v43l17 -19l14 7l-14 -16t-17 -15z" />
<glyph unicode="&#xe1;" d="M56 270q0 98 34 163q16 29 39 54t49 42t56.5 28.5t62.5 19.5q31 7 62 11t64 4q17 2 33.5 2.5t30.5 1.5q64 4 118 9q38 3 67.5 8t51.5 10q18 6 34 16t27 23q17 25 17 75q0 23 -1.5 47.5t-4.5 47.5q-5 23 -13.5 42.5t-22.5 38.5q-27 41 -78 62l1 -1q-32 11 -70.5 17.5 t-86.5 6.5q-306 -5 -330 -298h-77q9 177 111 276q98 98 296 100q145 2 245 -64q101 -72 109 -245v-646q0 -24 5.5 -30.5t13.5 -8.5l85 3q-19 -37 -47 -60.5t-55 -23.5q-31 0 -55.5 27t-24.5 90v53q-39 -62 -109 -112q-114 -81 -278 -83q-161 0 -257 75q-101 75 -102 219z M134 270q0 -35 17 -78q12 -38 41 -64q65 -73 219 -74q95 1 167.5 29t124.5 87q99 112 99 258v144q-8 -5 -16.5 -9t-18.5 -8q-21 -8 -47 -13.5t-55 -8.5q-54 -6 -114.5 -10.5t-124.5 -8.5q-29 -1 -56.5 -3.5t-53.5 -8.5q-24 -6 -48 -16t-47 -25q-40 -21 -61 -68 q-26 -49 -26 -123zM288 1158l297 323h112l-327 -323h-82zM802 572v43l17 -19l14 7l-14 -16t-17 -15z" />
<glyph unicode="&#xe2;" d="M56 270q0 98 34 163q16 29 39 54t49 42t56.5 28.5t62.5 19.5q31 7 62 11t64 4q17 2 33.5 2.5t30.5 1.5q64 4 118 9q38 3 67.5 8t51.5 10q18 6 34 16t27 23q17 25 17 75q0 23 -1.5 47.5t-4.5 47.5q-5 23 -13.5 42.5t-22.5 38.5q-27 41 -78 62l1 -1q-32 11 -70.5 17.5 t-86.5 6.5q-306 -5 -330 -298h-77q9 177 111 276q98 98 296 100q145 2 245 -64q101 -72 109 -245v-646q0 -24 5.5 -30.5t13.5 -8.5l85 3q-19 -37 -47 -60.5t-55 -23.5q-31 0 -55.5 27t-24.5 90v53q-39 -62 -109 -112q-114 -81 -278 -83q-161 0 -257 75q-101 75 -102 219z M134 270q0 -35 17 -78q12 -38 41 -64q65 -73 219 -74q95 1 167.5 29t124.5 87q99 112 99 258v144q-8 -5 -16.5 -9t-18.5 -8q-21 -8 -47 -13.5t-55 -8.5q-54 -6 -114.5 -10.5t-124.5 -8.5q-29 -1 -56.5 -3.5t-53.5 -8.5q-24 -6 -48 -16t-47 -25q-40 -21 -61 -68 q-26 -49 -26 -123zM212 1168l255 313h48l257 -313h-89l-193 231q-46 -57 -94 -115.5t-93 -115.5h-91zM802 572v43l17 -19l14 7l-14 -16t-17 -15z" />
<glyph unicode="&#xe3;" d="M56 270q0 98 34 163q16 29 39 54t49 42t56.5 28.5t62.5 19.5q31 7 62 11t64 4q17 2 33.5 2.5t30.5 1.5q64 4 118 9q38 3 67.5 8t51.5 10q18 6 34 16t27 23q17 25 17 75q0 23 -1.5 47.5t-4.5 47.5q-5 23 -13.5 42.5t-22.5 38.5q-27 41 -78 62l1 -1q-32 11 -70.5 17.5 t-86.5 6.5q-306 -5 -330 -298h-77q9 177 111 276q98 98 296 100q145 2 245 -64q101 -72 109 -245v-646q0 -24 5.5 -30.5t13.5 -8.5l85 3q-19 -37 -47 -60.5t-55 -23.5q-31 0 -55.5 27t-24.5 90v53q-39 -62 -109 -112q-114 -81 -278 -83q-161 0 -257 75q-101 75 -102 219z M134 270q0 -35 17 -78q12 -38 41 -64q65 -73 219 -74q95 1 167.5 29t124.5 87q99 112 99 258v144q-8 -5 -16.5 -9t-18.5 -8q-21 -8 -47 -13.5t-55 -8.5q-54 -6 -114.5 -10.5t-124.5 -8.5q-29 -1 -56.5 -3.5t-53.5 -8.5q-24 -6 -48 -16t-47 -25q-40 -21 -61 -68 q-26 -49 -26 -123zM212 1188q1 81 49 138l-1 -1q46 57 105 57q39 0 77 -18q16 -8 31 -17t30 -19q2 -1 3 -2t3 -2q17 -11 31.5 -20.5t30.5 -19.5q13 -8 24 -12t22 -4q37 0 58 28q19 27 19 80h78q0 -82 -37 -137q-39 -49 -118 -49q-20 0 -38.5 5.5t-38.5 16.5q-35 19 -65 40 q-11 9 -25.5 19t-28.5 19q-26 14 -55 14q-31 -1 -52 -29q-23 -34 -23 -87h-79zM802 572v43l17 -19l14 7l-14 -16t-17 -15z" />
<glyph unicode="&#xe4;" d="M56 270q0 98 34 163q16 29 39 54t49 42t56.5 28.5t62.5 19.5q31 7 62 11t64 4q17 2 33.5 2.5t30.5 1.5q64 4 118 9q38 3 67.5 8t51.5 10q18 6 34 16t27 23q17 25 17 75q0 23 -1.5 47.5t-4.5 47.5q-5 23 -13.5 42.5t-22.5 38.5q-27 41 -78 62l1 -1q-32 11 -70.5 17.5 t-86.5 6.5q-306 -5 -330 -298h-77q9 177 111 276q98 98 296 100q145 2 245 -64q101 -72 109 -245v-646q0 -24 5.5 -30.5t13.5 -8.5l85 3q-19 -37 -47 -60.5t-55 -23.5q-31 0 -55.5 27t-24.5 90v53q-39 -62 -109 -112q-114 -81 -278 -83q-161 0 -257 75q-101 75 -102 219z M134 270q0 -35 17 -78q12 -38 41 -64q65 -73 219 -74q95 1 167.5 29t124.5 87q99 112 99 258v144q-8 -5 -16.5 -9t-18.5 -8q-21 -8 -47 -13.5t-55 -8.5q-54 -6 -114.5 -10.5t-124.5 -8.5q-29 -1 -56.5 -3.5t-53.5 -8.5q-24 -6 -48 -16t-47 -25q-40 -21 -61 -68 q-26 -49 -26 -123zM300 1164v198h78v-198h-78zM607 1164v198h78v-198h-78zM802 572v43l17 -19l14 7l-14 -16t-17 -15z" />
<glyph unicode="&#xe5;" d="M56 270q0 98 34 163q16 29 39 54t49 42t56.5 28.5t62.5 19.5q31 7 62 11t64 4q17 2 33.5 2.5t30.5 1.5q64 4 118 9q38 3 67.5 8t51.5 10q18 6 34 16t27 23q17 25 17 75q0 23 -1.5 47.5t-4.5 47.5q-5 23 -13.5 42.5t-22.5 38.5q-27 41 -78 62l1 -1q-32 11 -70.5 17.5 t-86.5 6.5q-306 -5 -330 -298h-77q9 177 111 276q98 98 296 100q145 2 245 -64q101 -72 109 -245v-646q0 -24 5.5 -30.5t13.5 -8.5l85 3q-19 -37 -47 -60.5t-55 -23.5q-31 0 -55.5 27t-24.5 90v53q-39 -62 -109 -112q-114 -81 -278 -83q-161 0 -257 75q-101 75 -102 219z M134 270q0 -35 17 -78q12 -38 41 -64q65 -73 219 -74q95 1 167.5 29t124.5 87q99 112 99 258v144q-8 -5 -16.5 -9t-18.5 -8q-21 -8 -47 -13.5t-55 -8.5q-54 -6 -114.5 -10.5t-124.5 -8.5q-29 -1 -56.5 -3.5t-53.5 -8.5q-24 -6 -48 -16t-47 -25q-40 -21 -61 -68 q-26 -49 -26 -123zM300 1349q0 41 17 78q15 31 42 58q54 54 134 56q81 -2 135 -56q55 -55 57 -136q-2 -82 -57 -136q-54 -57 -135 -57q-80 0 -134 57q-57 55 -59 136zM378 1350q2 -49 36 -81q30 -35 79 -35q48 0 81 36q33 32 33 79q0 51 -32 84q-32 31 -82 31q-48 0 -79 -31 q-19 -19 -27 -39t-9 -44zM802 572v43l17 -19l14 7l-14 -16t-17 -15z" />
<glyph unicode="&#xe6;" horiz-adv-x="1801" d="M67 270q0 49 8.5 90t24.5 73q34 64 87 96q29 17 58.5 28.5t61.5 19.5q30 7 61.5 11t64.5 4q8 1 17 1t17 1q43 3 79.5 6t67.5 5q38 3 68 8t52 10h-1q43 14 61 39l-1 -1q20 29 20 76q0 23 -1.5 47t-5.5 47q-5 23 -13.5 43t-22.5 40q-26 38 -79 60h1q-29 11 -68 17.5 t-89 6.5q-304 -5 -329 -298h-77q7 174 111 276q102 99 295 100q146 2 246 -64q79 -57 102 -180q45 95 124 157h-1q54 44 122 65t151 22q241 -4 354 -170q51 -75 76 -161t25 -189q0 -10 -0.5 -28.5t-1.5 -28.5h-840q5 -92 28.5 -170.5t65.5 -140.5q88 -133 289 -134 q146 0 252 83l-1 -1q99 82 126 254h77q-22 -197 -141 -302q-122 -107 -313 -112q-316 8 -419 287q-20 -60 -55.5 -108.5t-83.5 -85.5q-61 -44 -134 -68t-158 -25q-160 0 -256 75q-101 75 -102 219zM144 270q0 -38 17 -80q11 -33 41 -62q63 -73 220 -74q189 1 290 116 q101 110 101 258v145q-17 -11 -36 -18q-21 -9 -46.5 -14t-54.5 -8q-55 -6 -115.5 -10.5t-124.5 -8.5q-29 -1 -56.5 -3.5t-53.5 -8.5q-25 -6 -48 -16.5t-46 -24.5q-40 -21 -62 -68q-26 -49 -26 -123zM813 573v42l17 -19l13 7q-6 -8 -14 -15.5t-16 -14.5zM893 577h762 q-4 85 -27.5 161.5t-65.5 133.5q-91 124 -283 126q-177 -1 -274 -116q-48 -57 -75.5 -130t-36.5 -175z" />
<glyph unicode="&#xe7;" horiz-adv-x="986" d="M41 505q0 115 31 217t89 183q60 81 153 125t220 46q153 0 266 -87q113 -91 139 -283h-78q-27 156 -114 225q-91 67 -213 67q-116 0 -195 -43q-39 -21 -70.5 -50t-55.5 -64q-46 -75 -70.5 -160.5t-23.5 -175.5q0 -185 101 -316q50 -68 122.5 -101t167.5 -34q71 0 134 22 t113 63q46 42 74 102.5t36 141.5h79q-26 -189 -130 -289.5t-283 -114.5q-8 -10 -14.5 -19t-14.5 -20h19q67 0 113 -29q52 -33 53 -108q-2 -93 -66 -132q-57 -32 -147 -32q-56 1 -96 15h1q-24 6 -46 12t-46 14l34 74q80 -35 154 -37q55 0 98 22q33 19 36 63q-1 31 -27 44 q-31 16 -61 16t-57.5 -7t-50.5 -22l-56 39l87 113q-93 12 -164.5 53t-124.5 109q-55 73 -85.5 164t-30.5 194z" />
<glyph unicode="&#xe8;" horiz-adv-x="1007" d="M45 526q4 263 145 407h-1q134 143 320 143q122 -2 213 -46.5t148 -125.5q22 -36 41 -78t32.5 -87t21.5 -92t8 -93q0 -8 -0.5 -18.5t-2.5 -36.5h-847q2 -99 24 -174.5t67 -138.5q87 -130 291 -132q313 1 379 336h78q-27 -205 -147 -308q-124 -105 -306 -106 q-242 2 -353 161v-1q-113 154 -111 390zM125 577h769q-2 89 -25.5 161.5t-69.5 133.5q-96 124 -287 126q-158 -2 -265 -116q-53 -57 -82.5 -132t-39.5 -173zM266 1438h112l280 -322h-80z" />
<glyph unicode="&#xe9;" horiz-adv-x="1008" d="M37 526q4 263 145 407h-1q134 143 320 143q122 -2 213 -46.5t148 -125.5q22 -36 41 -78t32.5 -87t21.5 -92t8 -93q0 -8 -0.5 -18.5t-2.5 -36.5h-847q2 -99 24 -174.5t67 -138.5q87 -130 291 -132q313 1 379 336h78q-27 -205 -147 -308q-124 -105 -306 -106 q-242 2 -353 161v-1q-113 154 -111 390zM117 577h769q-2 89 -25.5 161.5t-69.5 133.5q-96 124 -287 126q-158 -2 -265 -116q-53 -57 -82.5 -132t-39.5 -173zM355 1116l297 322h112l-327 -322h-82z" />
<glyph unicode="&#xea;" horiz-adv-x="1016" d="M46 526q4 263 145 407h-1q134 143 320 143q122 -2 213 -46.5t148 -125.5q22 -36 41 -78t32.5 -87t21.5 -92t8 -93q0 -8 -0.5 -18.5t-2.5 -36.5h-847q2 -99 24 -174.5t67 -138.5q87 -130 291 -132q313 1 379 336h78q-27 -205 -147 -308q-124 -105 -306 -106 q-242 2 -353 161v-1q-113 154 -111 390zM126 577h769q-2 89 -25.5 161.5t-69.5 133.5q-96 124 -287 126q-158 -2 -265 -116q-53 -57 -82.5 -132t-39.5 -173zM233 1125l255 313h48l257 -313h-89l-193 231q-46 -57 -94 -115.5t-93 -115.5h-91z" />
<glyph unicode="&#xeb;" horiz-adv-x="1023" d="M49 526q4 263 145 407h-1q134 143 320 143q122 -2 213 -46.5t148 -125.5q22 -36 41 -78t32.5 -87t21.5 -92t8 -93q0 -8 -0.5 -18.5t-2.5 -36.5h-847q2 -99 24 -174.5t67 -138.5q87 -130 291 -132q313 1 379 336h78q-27 -205 -147 -308q-124 -105 -306 -106 q-242 2 -353 161v-1q-113 154 -111 390zM129 577h769q-2 89 -25.5 161.5t-69.5 133.5q-96 124 -287 126q-158 -2 -265 -116q-53 -57 -82.5 -132t-39.5 -173zM326 1121v199h78v-199h-78zM633 1121v199h78v-199h-78z" />
<glyph unicode="&#xec;" horiz-adv-x="418" d="M6 1438h112l280 -322h-80zM217 0v1053h78v-1053h-78z" />
<glyph unicode="&#xed;" horiz-adv-x="432" d="M17 1116l297 322h112l-327 -322h-82zM133 0v1053h78v-1053h-78z" />
<glyph unicode="&#xee;" horiz-adv-x="585" d="M12 1125l256 313h47l257 -313h-89l-193 231q-46 -57 -94 -115.5t-93 -115.5h-91zM255 0v1053h78v-1053h-78z" />
<glyph unicode="&#xef;" horiz-adv-x="443" d="M28 1121v199h78v-199h-78zM183 0v1053h78v-1053h-78zM335 1121v199h78v-199h-78z" />
<glyph unicode="&#xf0;" horiz-adv-x="1047" d="M43 509q0 103 33.5 198.5t89.5 170.5q63 75 152.5 117t201.5 44q96 0 185 -33q18 -8 34.5 -16.5t32.5 -19.5q-20 32 -43 62.5t-47 59.5q-42 47 -81 86.5t-72 68.5q-60 -33 -122 -67.5t-121 -66.5l-58 58l235 130q-32 23 -77 51t-106 60l65 55q117 -64 194 -127 q60 32 122.5 68t121.5 68l56 -61l-234 -131q203 -185 297.5 -376.5t92.5 -398.5q0 -103 -31.5 -197.5t-87.5 -169.5q-63 -77 -153 -119.5t-205 -44.5q-112 2 -200.5 44.5t-151.5 119.5q-57 75 -90 169.5t-33 197.5zM121 509q0 -182 105 -316q98 -132 294 -137q197 5 297 137 q101 133 101 316q0 185 -101 316q-100 131 -297 136q-196 -4 -294 -136q-105 -135 -105 -316z" />
<glyph unicode="&#xf1;" horiz-adv-x="941" d="M69 0v1053h78v-173q34 65 96 115q50 41 113 60.5t141 20.5q170 0 273 -98q104 -100 106 -286v-692h-78v686q-2 168 -87 240v-1q-45 36 -98 54.5t-116 18.5q-173 -5 -259 -118q-44 -60 -67.5 -132.5t-23.5 -154.5v-593h-78zM196 1145q2 85 49 138l-1 -1q45 56 105 58 q20 0 39 -5t38 -13q32 -17 61 -37q2 -1 3 -2t3 -2q17 -11 31.5 -20.5t30.5 -18.5q26 -17 46 -17q37 0 58 28q19 28 19 80h78q0 -82 -37 -136q-39 -50 -118 -50q-37 0 -77 23q-35 19 -65 40q-11 9 -25.5 19t-28.5 19q-13 6 -27 10t-28 4q-17 -1 -29 -8.5t-23 -21.5 q-23 -32 -23 -87h-79z" />
<glyph unicode="&#xf2;" horiz-adv-x="1032" d="M43 526q0 224 123 382q123 164 354 168q233 -4 356 -168q60 -79 89.5 -174.5t29.5 -207.5q0 -110 -29.5 -205t-89.5 -176q-124 -164 -358 -169q-228 4 -352 169q-123 160 -123 381zM121 526q0 -189 105 -329q98 -138 294 -143q197 5 297 143q101 136 101 329t-101 330 q-99 137 -297 142q-197 -5 -294 -142q-105 -143 -105 -330zM280 1438h112l280 -322h-79z" />
<glyph unicode="&#xf3;" horiz-adv-x="1032" d="M35 526q0 224 123 382q123 164 354 168q233 -4 356 -168q60 -79 89.5 -174.5t29.5 -207.5q0 -110 -29.5 -205t-89.5 -176q-124 -164 -358 -169q-228 4 -352 169q-123 160 -123 381zM113 526q0 -189 105 -329q98 -138 294 -143q197 5 297 143q101 136 101 329t-101 330 q-99 137 -297 142q-197 -5 -294 -142q-105 -143 -105 -330zM370 1116l296 322h112l-326 -322h-82z" />
<glyph unicode="&#xf4;" horiz-adv-x="1040" d="M43 526q0 224 123 382q123 164 354 168q233 -4 356 -168q60 -79 89.5 -174.5t29.5 -207.5q0 -110 -29.5 -205t-89.5 -176q-124 -164 -358 -169q-228 4 -352 169q-123 160 -123 381zM121 526q0 -189 105 -329q98 -138 294 -143q197 5 297 143q101 136 101 329t-101 330 q-99 137 -297 142q-197 -5 -294 -142q-105 -143 -105 -330zM247 1125l255 313h47l257 -313h-88l-194 231q-46 -57 -94 -115.5t-93 -115.5h-90z" />
<glyph unicode="&#xf5;" horiz-adv-x="1051" d="M49 526q0 224 123 382q123 164 354 168q233 -4 356 -168q60 -79 89.5 -174.5t29.5 -207.5q0 -110 -29.5 -205t-89.5 -176q-124 -164 -358 -169q-228 4 -352 169q-123 160 -123 381zM127 526q0 -189 105 -329q98 -138 294 -143q197 5 297 143q101 136 101 329t-101 330 q-99 137 -297 142q-197 -5 -294 -142q-105 -143 -105 -330zM253 1145q2 85 49 138l-1 -1q45 57 105 58q20 0 39 -5t38 -13q31 -17 61 -37q2 -1 2.5 -2t2.5 -2q17 -11 32 -20.5t30 -18.5q26 -17 46 -17q39 0 58 28q19 26 19 80h78q0 -84 -36 -136q-39 -50 -119 -50 q-37 0 -77 23q-18 10 -33.5 19.5t-30.5 20.5q-12 9 -26 19t-28 19q-14 6 -28 10t-27 4q-31 -1 -52 -30q-12 -16 -17.5 -38t-5.5 -49h-79z" />
<glyph unicode="&#xf6;" horiz-adv-x="1048" d="M47 526q0 224 123 382q123 164 354 168q233 -4 356 -168q60 -79 89.5 -174.5t29.5 -207.5q0 -110 -29.5 -205t-89.5 -176q-124 -164 -358 -169q-228 4 -352 169q-123 160 -123 381zM125 526q0 -189 105 -329q98 -138 294 -143q197 5 297 143q101 136 101 329t-101 330 q-99 137 -297 142q-197 -5 -294 -142q-105 -143 -105 -330zM340 1121v199h78v-199h-78zM648 1121v199h78v-199h-78z" />
<glyph unicode="&#xf7;" horiz-adv-x="1049" d="M8 480v78h1033v-78h-1033zM425 100q1 99 100 100q94 -4 100 -100q2 -99 -100 -100q-102 1 -100 100zM425 936q2 100 100 101q94 -6 100 -101q2 -99 -100 -100q-102 1 -100 100z" />
<glyph unicode="&#xf8;" horiz-adv-x="1102" d="M59 63l122 125q-95 146 -95 338q0 224 122 382q123 164 355 168q213 -1 331 -142l88 91l54 -55l-94 -98q96 -146 96 -346q0 -221 -120 -381q-122 -164 -357 -169q-214 4 -336 146q-13 -13 -27.5 -28t-29 -30.5t-28.5 -29.5l-26 -26zM164 526q0 -78 18 -147.5t53 -131.5 l604 630q-48 60 -116.5 89.5t-159.5 31.5q-197 -5 -294 -142q-105 -143 -105 -330zM280 181q48 -67 118 -96.5t165 -30.5q196 5 297 143q101 136 101 329q0 84 -17.5 153t-59.5 134z" />
<glyph unicode="&#xf9;" horiz-adv-x="914" d="M56 360v693h78v-687q2 -166 90 -238q42 -38 95.5 -56t116.5 -18q174 2 261 123q88 115 88 283v593h78v-1053h-78v173q-35 -67 -92 -114v1q-51 -42 -114 -62.5t-143 -21.5q-164 1 -271 102q-109 99 -109 282zM215 1438h112l280 -322h-80z" />
<glyph unicode="&#xfa;" horiz-adv-x="915" d="M45 360v693h78v-687q2 -166 90 -238q42 -38 95.5 -56t116.5 -18q174 2 261 123q88 115 88 283v593h78v-1053h-78v173q-35 -67 -92 -114v1q-51 -42 -114 -62.5t-143 -21.5q-164 1 -271 102q-109 99 -109 282zM305 1116l297 322h112l-327 -322h-82z" />
<glyph unicode="&#xfb;" horiz-adv-x="925" d="M56 360v693h78v-687q2 -166 90 -238q42 -38 95.5 -56t116.5 -18q174 2 261 123q88 115 88 283v593h78v-1053h-78v173q-35 -67 -92 -114v1q-51 -42 -114 -62.5t-143 -21.5q-164 1 -271 102q-109 99 -109 282zM185 1125l255 313h48l257 -313h-89l-193 231 q-46 -57 -94 -115.5t-93 -115.5h-91z" />
<glyph unicode="&#xfc;" horiz-adv-x="936" d="M61 360v693h78v-687q2 -166 90 -238q42 -38 95.5 -56t116.5 -18q174 2 261 123q88 115 88 283v593h78v-1053h-78v173q-35 -67 -92 -114v1q-51 -42 -114 -62.5t-143 -21.5q-164 1 -271 102q-109 99 -109 282zM278 1121v199h78v-199h-78zM585 1121v199h78v-199h-78z" />
<glyph unicode="&#xfd;" horiz-adv-x="939" d="M17 1053h84l390 -928l350 928h83l-477 -1248q-41 -106 -119 -134q-36 -11 -83 -16t-104 -3v77q8 0 25.5 -0.5t25.5 -0.5q75 0 112 19q21 10 41 37.5t34 62.5q17 45 35 91t35 91q-53 124 -107.5 253t-109 259t-109 259t-106.5 253zM331 1158l296 323h112l-326 -323h-82z " />
<glyph unicode="&#xfe;" horiz-adv-x="1007" d="M82 -349v1796h78v-605q20 42 48.5 77t63.5 66q108 90 279 91q222 -1 338 -155q113 -150 113 -393q0 -224 -103 -382q-111 -165 -349 -170q-285 8 -390 231v-556h-78zM160 528q2 -226 111 -350q106 -124 280 -124q52 0 98 11t81 31q37 22 65.5 49.5t48.5 59.5 q47 72 66 154l-1 -1q15 87 15 170q0 97 -22.5 180.5t-65.5 152.5q-43 64 -115 99.5t-170 37.5q-199 -5 -293 -136q-98 -137 -98 -334z" />
<glyph unicode="&#xff;" horiz-adv-x="944" d="M21 1053h84l390 -928l350 928h83l-477 -1248q-41 -106 -119 -134q-36 -11 -83 -16t-104 -3v77q8 0 25.5 -0.5t25.5 -0.5q75 0 112 19q21 10 41 37.5t34 62.5q17 45 35 91t35 91q-53 124 -107.5 253t-109 259t-109 259t-106.5 253zM291 1164v198h78v-198h-78zM599 1164 v198h78v-198h-78z" />
<glyph unicode="&#x152;" horiz-adv-x="2038" d="M65 723q0 157 43 292.5t128 247.5q86 109 213 169.5t292 63.5q110 1 203 -33.5t169 -102.5v102h903v-79h-824v-583h729v-79h-729v-642h824v-79h-903v105q-168 -141 -372 -139q-328 6 -503 229q-173 215 -173 528zM143 723q6 -301 163 -485q78 -97 186.5 -144.5 t248.5 -48.5q42 0 97 11l-1 -1q48 12 99 33q47 17 92.5 50t84.5 75v1042q-152 163 -372 162q-275 -1 -431 -187q-161 -187 -167 -507z" />
<glyph unicode="&#x153;" horiz-adv-x="1802" d="M71 526q-2 102 23.5 198t73.5 177q52 84 136.5 128.5t201.5 46.5q173 -1 282 -101q82 -76 113 -186q18 54 45 98.5t65 82.5q103 100 289 106q115 -2 198.5 -42.5t137.5 -118.5q99 -150 99 -367v-49h-793q1 -218 92.5 -329t266.5 -116q80 2 142 24.5t100 67.5 q80 89 103 234h79q-30 -194 -136 -295q-107 -107 -288 -109q-318 5 -400 277q-83 -268 -395 -277q-231 4 -336 177v-1q-102 159 -99 374zM148 526q-1 -91 21.5 -173.5t63.5 -151.5q21 -31 49 -59t62 -48q65 -40 162 -40q202 4 282 141q77 135 76 331q0 192 -78 332 q-80 136 -280 140q-194 -5 -273 -140q-43 -71 -64.5 -153t-20.5 -179zM943 577h714q-4 83 -26 160.5t-58 135.5q-83 123 -270 125q-192 -2 -272 -121q-39 -59 -61 -134t-27 -166z" />
<glyph unicode="&#x178;" horiz-adv-x="1289" d="M12 1462h96l537 -768l538 768h94l-593 -848v-614h-79v614q-72 102 -146.5 209t-150 215t-150.5 215t-146 209zM462 1531v201h79v-201h-79zM772 1531v201h79v-201h-79z" />
<glyph unicode="&#x2c6;" horiz-adv-x="622" d="M31 1168l255 313h48l257 -313h-89l-193 231q-46 -57 -94 -115.5t-93 -115.5h-91z" />
<glyph unicode="&#x2dc;" horiz-adv-x="694" d="M66 1188q1 81 49 138l-1 -1q46 57 105 57q39 0 77 -18q16 -8 31 -17t30 -19q2 -1 3 -2t3 -2q17 -11 31.5 -20.5t30.5 -19.5q13 -8 24 -12t22 -4q37 0 58 28q19 27 19 80h78q0 -82 -37 -137q-39 -49 -118 -49q-20 0 -38.5 5.5t-38.5 16.5q-35 19 -65 40q-11 9 -25.5 19 t-28.5 19q-26 14 -55 14q-31 -1 -52 -29q-23 -34 -23 -87h-79z" />
<glyph unicode="&#x2000;" horiz-adv-x="947" />
<glyph unicode="&#x2001;" horiz-adv-x="1895" />
<glyph unicode="&#x2002;" horiz-adv-x="947" />
<glyph unicode="&#x2003;" horiz-adv-x="1895" />
<glyph unicode="&#x2004;" horiz-adv-x="631" />
<glyph unicode="&#x2005;" horiz-adv-x="473" />
<glyph unicode="&#x2006;" horiz-adv-x="315" />
<glyph unicode="&#x2007;" horiz-adv-x="315" />
<glyph unicode="&#x2008;" horiz-adv-x="236" />
<glyph unicode="&#x2009;" horiz-adv-x="379" />
<glyph unicode="&#x200a;" horiz-adv-x="105" />
<glyph unicode="&#x2010;" horiz-adv-x="549" d="M82 509v78h383v-78h-383z" />
<glyph unicode="&#x2011;" horiz-adv-x="549" d="M82 509v78h383v-78h-383z" />
<glyph unicode="&#x2012;" horiz-adv-x="549" d="M82 509v78h383v-78h-383z" />
<glyph unicode="&#x2013;" horiz-adv-x="1190" d="M82 509v78h1025v-78h-1025z" />
<glyph unicode="&#x2014;" horiz-adv-x="1663" d="M82 509v78h1499v-78h-1499z" />
<glyph unicode="&#x2018;" horiz-adv-x="223" d="M60 964v253q0 52 6 91t16 63q11 24 37.5 46t68.5 41v-80q-51 -33 -50 -161v-253h-78z" />
<glyph unicode="&#x2019;" horiz-adv-x="224" d="M36 953v81q17 10 27 23.5t15 30.5l-1 -1q9 39 9 109v251h77v-251q0 -53 -5 -90.5t-14 -60.5q-11 -25 -37 -47.5t-71 -44.5z" />
<glyph unicode="&#x201a;" horiz-adv-x="210" d="M38 -168q29 31 40 68q9 37 9 119v213h78v-213q2 -184 -127 -271v84z" />
<glyph unicode="&#x201c;" horiz-adv-x="460" d="M73 964v253q0 54 5.5 91.5t16.5 62.5q24 49 105 88v-81q-50 -34 -49 -161v-253h-78zM271 964v253q0 54 5.5 91.5t15.5 62.5q24 49 106 88v-81q-50 -33 -49 -161v-253h-78z" />
<glyph unicode="&#x201d;" horiz-adv-x="459" d="M62 953v81q17 10 27 23.5t15 30.5l-1 -1q9 39 9 109v251h78v-251q0 -106 -21 -151q-21 -48 -107 -92zM259 952v82q33 19 42 54l-1 -2q4 21 6 48t2 62v251h78v-251q0 -53 -5 -90.5t-14 -60.5q-22 -48 -108 -93z" />
<glyph unicode="&#x201e;" horiz-adv-x="454" d="M62 -168q29 29 40 68l-1 -1q11 50 11 120v213h78v-213q1 -181 -128 -271v84zM259 -168q14 15 25 32.5t16 35.5q8 40 8 119v213h78v-213q1 -91 -30 -159t-97 -112v84z" />
<glyph unicode="&#x2022;" horiz-adv-x="855" d="M56 724q2 159 111 263q104 105 260 107q160 -2 264 -107q106 -105 108 -263q-1 -77 -29.5 -143.5t-78.5 -119.5q-53 -53 -119 -80.5t-145 -28.5q-156 1 -260 109q-109 105 -111 263z" />
<glyph unicode="&#x2026;" horiz-adv-x="1555" d="M82 0v232h77v-232h-77zM738 0v232h78v-232h-78zM1395 0v232h78v-232h-78z" />
<glyph unicode="&#x202f;" horiz-adv-x="379" />
<glyph unicode="&#x2039;" horiz-adv-x="300" d="M3 525v45l242 327v-135l-159 -214q38 -52 79.5 -107.5t79.5 -107.5v-133z" />
<glyph unicode="&#x203a;" horiz-adv-x="327" d="M82 200v133l159 215q-38 53 -79.5 108t-79.5 106v135l242 -327v-45z" />
<glyph unicode="&#x205f;" horiz-adv-x="473" />
<glyph unicode="&#x20ac;" horiz-adv-x="1255" d="M36 531l28 72h96q-1 7 -1 12v10v42v46t2 49h-125l28 71h106q18 121 66.5 226.5t126.5 183t183 122t235 44.5q112 0 205.5 -35.5t186.5 -108.5l-35 -67q-100 77 -178 106q-78 31 -181 31q-114 0 -205.5 -38t-159 -105.5t-110 -159.5t-56.5 -199h813l-38 -71h-784 q-2 -20 -2 -38.5v-37.5q0 -21 1 -42t3 -41h761l-38 -72h-714q20 -99 64 -187t110.5 -155t154 -106t195.5 -39q237 0 427 226v-114q-183 -186 -433 -186q-125 0 -227 44t-178.5 119.5t-126 178t-68.5 219.5h-132z" />
<glyph unicode="&#x2122;" horiz-adv-x="1759" d="M49 1369v78h669v-78h-295v-774h-78v774h-296zM866 595v852h98l307 -726q76 181 154 363.5t154 362.5h98v-852h-77v708q-73 -177 -148.5 -355t-147.5 -353h-64l-296 707v-707h-78z" />
<glyph unicode="&#xe000;" horiz-adv-x="1055" d="M0 0v1055h1055v-1055h-1055z" />
</font>
</defs>
</svg>
