<?xml version="1.0" encoding="utf-8"?>
<!-- Generator: Adobe Illustrator 15.0.2, SVG Export Plug-In . SVG Version: 6.00 Build 0)  -->
<!DOCTYPE svg PUBLIC "-//W3C//DTD SVG 1.1//EN" "http://www.w3.org/Graphics/SVG/1.1/DTD/svg11.dtd">
<svg version="1.1" id="Layer_1" xmlns="http://www.w3.org/2000/svg" xmlns:xlink="http://www.w3.org/1999/xlink" x="0px" y="0px"
	 width="17px" height="16px" viewBox="0 0 17 16" enable-background="new 0 0 17 16" xml:space="preserve">
<g>
	<path fill="#808080" d="M16.562,3.487c-0.067,0.242-2.445,10.579-2.547,10.927c-0.071,0.315-0.388,0.452-0.665,0.315
		c-0.278-0.175-4.329-2.342-4.329-2.342l-0.524-0.278l0.385-0.455c0,0,6.774-7.331,6.88-7.436c0.102-0.104-0.072-0.278-0.178-0.174
		c-0.139,0.105-9.601,7.019-9.601,7.019l-1.956-0.769c0,0-2.966-1.187-3.316-1.326c-0.314-0.104-0.245-0.35,0-0.419
		c0.28-0.106,15.118-5.342,15.396-5.448C16.424,2.998,16.634,3.207,16.562,3.487z M5.948,12.251l2.793,1.431
		c0,0-2.269,2.024-2.479,2.234c-0.173,0.141-0.314,0.105-0.314-0.105V12.251z"/>
</g>
</svg>
