<?xml version="1.0" encoding="utf-8"?>
<!-- Generator: Adobe Illustrator 15.0.2, SVG Export Plug-In . SVG Version: 6.00 Build 0)  -->
<!DOCTYPE svg PUBLIC "-//W3C//DTD SVG 1.1//EN" "http://www.w3.org/Graphics/SVG/1.1/DTD/svg11.dtd">
<svg version="1.1" id="Layer_1" xmlns="http://www.w3.org/2000/svg" xmlns:xlink="http://www.w3.org/1999/xlink" x="0px" y="0px"
	 width="17px" height="16px" viewBox="9.122 14.45 17 16" enable-background="new 9.122 14.45 17 16" xml:space="preserve">
<path fill="#808080" d="M13.178,25.014c0.037-0.055,0.068-0.163,0.095-0.325c0.028-0.163,0.059-0.415,0.096-0.757
	c0.089-1.191,0.31-2.138,0.663-2.841c0.351-0.704,0.896-1.244,1.635-1.624c0.162,0.091,0.343,0.176,0.542,0.257
	c0.198,0.082,0.406,0.14,0.622,0.176v0.136c0,0.09,0.004,0.184,0.014,0.284c0.009,0.099,0.031,0.185,0.067,0.256l0.108,0.244
	l0.243,0.109c0.361,0.125,0.717,0.198,1.068,0.215c0.353,0.02,0.686,0.01,1.002-0.026c0.314-0.036,0.607-0.095,0.878-0.176
	c0.271-0.082,0.505-0.166,0.703-0.257l0.678,1.488c-0.542,0.289-1.011,0.501-1.407,0.636c-0.397,0.134-0.757,0.22-1.082,0.256
	c-0.324,0.036-0.627,0.041-0.907,0.014c-0.279-0.027-0.553-0.067-0.824-0.121H17.02c-0.181,0-0.311,0.054-0.393,0.161
	c-0.081,0.109-0.148,0.235-0.203,0.379c-0.018,0.163,0.027,0.299,0.135,0.406c0.055,0.054,0.109,0.1,0.163,0.135
	c0.018,0.018,0.202,0.113,0.554,0.284c0.352,0.172,0.775,0.451,1.271,0.839c0.495,0.388,1.033,0.901,1.609,1.542
	c0.577,0.64,1.109,1.438,1.597,2.394l-1.704,1.027c-0.109-0.216-0.271-0.473-0.488-0.771c-0.216-0.298-0.495-0.604-0.837-0.921
	c-0.344-0.314-0.754-0.635-1.232-0.959c-0.478-0.325-1.042-0.631-1.691-0.92c-0.054-0.018-0.095-0.035-0.122-0.054
	c-0.027-0.018-0.068-0.027-0.122-0.027c-0.162,0-0.289,0.063-0.379,0.189l-0.297,0.352c-0.234,0.307-0.483,0.622-0.744,0.947
	c-0.262,0.323-0.582,0.64-0.961,0.946c-0.378,0.307-0.829,0.595-1.352,0.865c-0.524,0.272-1.145,0.497-1.866,0.678l-0.839-2.137
	c0.271-0.071,0.585-0.181,0.947-0.325c0.361-0.144,0.731-0.347,1.109-0.608c0.379-0.261,0.744-0.586,1.095-0.974
	C12.625,26.019,12.926,25.554,13.178,25.014z M15.451,14.356c0.613,0,1.131,0.211,1.555,0.635c0.424,0.424,0.636,0.942,0.636,1.555
	s-0.212,1.133-0.636,1.556c-0.424,0.425-0.941,0.636-1.555,0.636s-1.132-0.211-1.556-0.636c-0.424-0.423-0.636-0.942-0.636-1.556
	s0.213-1.131,0.636-1.555C14.319,14.567,14.838,14.356,15.451,14.356z"/>
</svg>
