<?xml version="1.0" encoding="utf-8"?>
<!-- Generator: Adobe Illustrator 15.0.2, SVG Export Plug-In . SVG Version: 6.00 Build 0)  -->
<!DOCTYPE svg PUBLIC "-//W3C//DTD SVG 1.1//EN" "http://www.w3.org/Graphics/SVG/1.1/DTD/svg11.dtd">
<svg version="1.1" id="Layer_1" xmlns="http://www.w3.org/2000/svg" xmlns:xlink="http://www.w3.org/1999/xlink" x="0px" y="0px"
	 width="60px" height="60px" viewBox="-0.242 -0.221 60 60" enable-background="new -0.242 -0.221 60 60" xml:space="preserve">
<g>
	<path fill="#808080" d="M14.747,29.779c-2.078,0-4.028-0.391-5.85-1.173c-1.821-0.781-3.408-1.856-4.762-3.22
		c-1.352-1.368-2.419-2.96-3.202-4.782c-0.784-1.82-1.175-3.77-1.175-5.847c0-2.078,0.392-4.025,1.174-5.847
		c0.783-1.819,1.85-3.406,3.202-4.758c1.353-1.351,2.941-2.417,4.762-3.199c1.823-0.784,3.773-1.175,5.851-1.175
		c2.079,0,4.027,0.391,5.851,1.174c1.821,0.782,3.417,1.849,4.785,3.199c1.365,1.352,2.438,2.939,3.222,4.758
		c0.784,1.823,1.174,3.77,1.174,5.847c0,2.077-0.391,4.028-1.174,5.847c-0.784,1.821-1.858,3.413-3.222,4.782
		c-1.368,1.363-2.962,2.438-4.785,3.219C18.774,29.388,16.826,29.779,14.747,29.779z M10.519,6.266c-0.455,0-0.84,0.163-1.152,0.49
		C9.053,7.084,8.897,7.474,8.897,7.929c0,0.455,0.157,0.839,0.471,1.152c0.313,0.313,0.697,0.47,1.152,0.47
		c0.455,0,0.839-0.157,1.154-0.47c0.312-0.313,0.469-0.698,0.469-1.152c0-0.456-0.157-0.846-0.469-1.174
		C11.358,6.428,10.974,6.266,10.519,6.266z M11.844,10.533H9.195v9.176h2.647L11.844,10.533L11.844,10.533z M13.123,19.708h2.648
		v-5.89c0.2-0.201,0.428-0.355,0.684-0.47c0.2-0.084,0.427-0.143,0.684-0.169c0.255-0.029,0.511,0.026,0.768,0.169
		c0.113,0.057,0.222,0.166,0.32,0.322c0.099,0.156,0.15,0.306,0.15,0.448v5.591h2.605v-5.591c0-0.597-0.164-1.181-0.491-1.749
		c-0.329-0.571-0.762-1.009-1.303-1.323c-0.485-0.255-1.046-0.398-1.688-0.426c-0.64-0.028-1.217,0.086-1.729,0.341v-0.427h-2.648
		V19.708z"/>
	<path fill="#808080" d="M44.768,29.779c-2.079,0-4.027-0.391-5.852-1.173c-1.821-0.781-3.408-1.85-4.762-3.2
		c-1.353-1.351-2.42-2.939-3.202-4.758c-0.784-1.821-1.175-3.771-1.175-5.847c0-2.078,0.391-4.025,1.175-5.847
		c0.782-1.82,1.85-3.414,3.202-4.782c1.353-1.364,2.94-2.438,4.762-3.22c1.823-0.783,3.772-1.174,5.852-1.174
		c2.077,0,4.027,0.391,5.85,1.174c1.822,0.782,3.41,1.855,4.762,3.22c1.353,1.368,2.42,2.961,3.205,4.782
		c0.781,1.822,1.173,3.77,1.173,5.847c0,2.076-0.392,4.026-1.173,5.847c-0.784,1.819-1.853,3.407-3.205,4.758
		c-1.352,1.351-2.94,2.419-4.762,3.2C48.796,29.388,46.845,29.779,44.768,29.779z M40.883,15.313h2.221v6.742h2.774v-6.742h2.777
		v-2.774h-2.777v-1.408c0-0.229,0.059-0.425,0.173-0.597c0.112-0.169,0.241-0.255,0.383-0.255h2.221V7.546h-2.22
		c-0.911,0-1.693,0.356-2.349,1.066c-0.655,0.712-0.982,1.567-0.982,2.561v1.366h-2.22L40.883,15.313L40.883,15.313z"/>
	<path fill="#09AAE2" d="M14.747,59.779c-2.078,0-4.028-0.39-5.85-1.172c-1.822-0.781-3.409-1.857-4.762-3.222
		c-1.353-1.368-2.42-2.96-3.203-4.78s-1.174-3.771-1.174-5.848c0-2.075,0.392-4.025,1.174-5.846s1.85-3.407,3.203-4.758
		c1.353-1.353,2.941-2.418,4.762-3.201c1.822-0.782,3.772-1.174,5.85-1.174c2.079,0,4.028,0.392,5.851,1.174
		c1.821,0.783,3.417,1.849,4.783,3.201c1.366,1.351,2.439,2.938,3.224,4.758c0.784,1.821,1.175,3.771,1.175,5.846
		c0,2.077-0.391,4.028-1.175,5.848c-0.784,1.82-1.858,3.413-3.224,4.78c-1.366,1.364-2.961,2.439-4.783,3.222
		C18.775,59.39,16.826,59.779,14.747,59.779z M10.519,36.266c-0.455,0-0.839,0.163-1.152,0.49c-0.314,0.326-0.471,0.719-0.471,1.174
		c0,0.454,0.157,0.84,0.471,1.152c0.313,0.312,0.696,0.469,1.152,0.469c0.455,0,0.839-0.155,1.154-0.469
		c0.313-0.312,0.47-0.698,0.47-1.152c0-0.455-0.157-0.848-0.47-1.174C11.358,36.429,10.974,36.266,10.519,36.266z M11.844,40.532
		H9.195v9.176h2.647L11.844,40.532L11.844,40.532z M13.123,49.708h2.648V43.82c0.2-0.2,0.428-0.356,0.684-0.47
		c0.2-0.086,0.426-0.144,0.684-0.17c0.255-0.027,0.511,0.027,0.767,0.17c0.113,0.057,0.223,0.165,0.319,0.32
		c0.1,0.156,0.15,0.306,0.15,0.449v5.589h2.605v-5.589c0-0.598-0.163-1.181-0.489-1.752c-0.329-0.568-0.763-1.008-1.303-1.322
		c-0.485-0.255-1.047-0.398-1.688-0.427c-0.64-0.027-1.215,0.087-1.728,0.343v-0.428h-2.649L13.123,49.708L13.123,49.708z"/>
	<path fill="#09AAE2" d="M44.768,59.779c-2.078,0-4.027-0.39-5.852-1.172c-1.82-0.781-3.408-1.851-4.761-3.201
		c-1.353-1.352-2.42-2.938-3.202-4.758c-0.784-1.823-1.175-3.771-1.175-5.848c0-2.076,0.391-4.025,1.175-5.847
		c0.781-1.818,1.85-3.412,3.202-4.78c1.353-1.363,2.94-2.438,4.761-3.221c1.824-0.782,3.773-1.175,5.852-1.175
		c2.077,0,4.028,0.393,5.851,1.175c1.821,0.782,3.409,1.857,4.761,3.221c1.354,1.367,2.42,2.961,3.205,4.78
		c0.781,1.822,1.173,3.771,1.173,5.847c0,2.077-0.392,4.025-1.173,5.848c-0.784,1.82-1.852,3.406-3.205,4.758
		c-1.352,1.351-2.94,2.418-4.761,3.201C48.797,59.39,46.845,59.779,44.768,59.779z M40.883,45.314h2.221v6.742h2.775v-6.742h2.776
		v-2.775h-2.776V41.13c0-0.229,0.058-0.425,0.172-0.599c0.112-0.169,0.241-0.254,0.383-0.254h2.221v-2.73h-2.22
		c-0.911,0-1.692,0.354-2.349,1.065c-0.655,0.712-0.982,1.566-0.982,2.562v1.365h-2.22L40.883,45.314L40.883,45.314z"/>
</g>
</svg>
