<?xml version="1.0" encoding="utf-8"?>
<!-- Generator: Adobe Illustrator 15.0.2, SVG Export Plug-In . SVG Version: 6.00 Build 0)  -->
<!DOCTYPE svg PUBLIC "-//W3C//DTD SVG 1.1//EN" "http://www.w3.org/Graphics/SVG/1.1/DTD/svg11.dtd">
<svg version="1.1" id="Layer_1" xmlns="http://www.w3.org/2000/svg" xmlns:xlink="http://www.w3.org/1999/xlink" x="0px" y="0px"
	 width="17px" height="16px" viewBox="10.706 13.396 17 16" enable-background="new 10.706 13.396 17 16" xml:space="preserve">
<path fill="#808080" d="M12.625,13.396c0.545,0,1.007,0.193,1.382,0.579c0.377,0.386,0.565,0.851,0.565,1.396
	c0,0.546-0.188,1.007-0.565,1.383c-0.375,0.377-0.837,0.564-1.382,0.564c-0.545,0-1.002-0.187-1.369-0.564
	c-0.367-0.376-0.55-0.837-0.55-1.383c0-0.545,0.184-1.011,0.55-1.396S12.08,13.396,12.625,13.396z M11.045,29.396v-10.92h3.16v10.92
	H11.045z M18.889,18.475v0.507c0.602-0.301,1.28-0.433,2.033-0.396c0.753,0.038,1.43,0.208,2.031,0.508
	c0.64,0.358,1.151,0.875,1.538,1.553c0.386,0.677,0.578,1.373,0.578,2.088v6.66h-3.104v-6.66c0-0.149-0.057-0.329-0.17-0.535
	c-0.113-0.207-0.235-0.33-0.366-0.368c-0.319-0.168-0.63-0.233-0.931-0.197c-0.301,0.038-0.574,0.113-0.819,0.226
	c-0.282,0.132-0.545,0.31-0.789,0.536v6.998h-3.16v-10.92H18.889z"/>
</svg>
